<svg width="819" height="636" viewBox="0 0 819 636" fill="none" xmlns="http://www.w3.org/2000/svg">
<g clip-path="url(#clip0_337_27904)">
<mask id="mask0_337_27904" style="mask-type:luminance" maskUnits="userSpaceOnUse" x="0" y="0" width="822" height="655">
<g opacity="0.8">
<path fill-rule="evenodd" clip-rule="evenodd" d="M0 0H822V655H0V0Z" fill="white"/>
</g>
</mask>
<g mask="url(#mask0_337_27904)">
<path fill-rule="evenodd" clip-rule="evenodd" d="M-73.258 -43.7389V386.47C-73.258 389.521 -70.8836 392.474 -67.9004 393.132L255.41 464.501C257.959 465.064 262.078 465.862 264.647 466.292C266.146 466.542 266.146 466.542 270.642 467.294C273.017 467.69 273.017 467.69 274.95 468.014C328.787 477.011 408.668 498.369 507.672 529.171C527.311 535.281 547.532 541.712 568.247 548.426C625.715 567.052 684.42 587.009 741.212 606.966C761.089 613.951 779.307 620.437 795.472 626.257C801.13 628.295 806.127 630.103 810.414 631.662C811.914 632.208 813.218 632.683 814.321 633.086C814.982 633.327 815.429 633.491 815.655 633.574L817.021 634.075L815.84 556.692L264.633 184.997C262.501 183.56 259.047 181.192 256.936 179.721L-67.8522 -46.5639C-70.6311 -48.4999 -73.258 -47.1281 -73.258 -43.7389Z" fill="#EFEFEF" stroke="#D2D6D9" stroke-width="2"/>
<path fill-rule="evenodd" clip-rule="evenodd" d="M401.533 434.495L383.042 492.785L-39.3241 399.695V316.367L401.533 434.495Z" fill="#E3E3E3" stroke="#D2D6D9" stroke-width="2"/>
<path fill-rule="evenodd" clip-rule="evenodd" d="M14 9.25L-26.5 -19L-52.3655 397.05L14.3418 412.68L14 9.25Z" fill="#828790"/>
</g>
</g>
<defs>
<clipPath id="clip0_337_27904">
<rect width="819" height="636" fill="white"/>
</clipPath>
</defs>
</svg>
