<svg id="stroke" height="512" viewBox="0 0 340 340" width="512" xmlns="http://www.w3.org/2000/svg" >

<path d="m301.4 187.142h-.009l-27.034-.743a15.714 15.714 0 0 1 -13.214-8.184 245.259 245.259 0 0 0 -19.972-31.425 40.681 40.681 0 0 0 -9.2-8.707c15.477-3.158 18.149-12.675 18.275-13.165a3.292 3.292 0 0 0 .082-.432c1.481-11.652.036-32.778-1.438-48.448a12.341 12.341 0 0 0 -5.522-9.175 12.669 12.669 0 0 0 -10.886-1.5 172.061 172.061 0 0 1 -21.613 5.29v-26.8a20 20 0 0 0 -19.979-19.98h-56.076a20 20 0 0 0 -19.98 19.98v23.1a15.477 15.477 0 0 0 -6.506 2.333 14.947 14.947 0 0 0 -6.651 9.839c-.522 2.75-.933 5.581-1.258 8.44l-5.25-2.96a40.662 40.662 0 1 0 -32.269 73.548 3.541 3.541 0 0 0 .883.113 3.5 3.5 0 0 0 .88-6.888 33.664 33.664 0 1 1 26.79-60.834c.061.039.122.078.185.113l8.125 4.582a174.214 174.214 0 0 0 .708 29 19.8 19.8 0 0 0 3.313 9.491 42.1 42.1 0 0 0 -14.684 9.61 178.6 178.6 0 0 0 -22.857 28.517 18.1 18.1 0 0 0 -12.4-9.251l-10.774-2.148a18.094 18.094 0 0 0 -21.25 14.186l-10.934 54.866a18.065 18.065 0 0 0 14.186 21.249l10.773 2.148a17.94 17.94 0 0 0 7.269-.053c.034.8.066 1.609.115 2.412a20.326 20.326 0 0 0 20.207 19.125h.525a44.785 44.785 0 0 0 89.361 0h52.524a3.5 3.5 0 0 0 0-7h-52.59a44.787 44.787 0 0 0 -89.229 0h-.591a13.318 13.318 0 0 1 -13.221-12.549 122.629 122.629 0 0 1 .683-22.268 21.734 21.734 0 0 0 24.903-19.384l.771-7.911a19.553 19.553 0 0 0 -9.043-18.552c-.5-.318-.983-.594-1.443-.85a168.146 168.146 0 0 1 28-37.619 35.377 35.377 0 0 1 25.034-10.435h89.767a33.935 33.935 0 0 1 26.732 13.229 238.132 238.132 0 0 1 19.369 30.494 22.759 22.759 0 0 0 19.146 11.854l23.66.651v12.285a19.447 19.447 0 0 0 18.557 19.45l6.024.283v28.1a13.247 13.247 0 0 1 -13.232 13.232h-2.6a44.812 44.812 0 1 0 .066 7h2.532a20.255 20.255 0 0 0 20.232-20.232v-31.304c.149-1.916 1.064-17.668-8.076-27.683-4.846-5.313-11.542-8.017-19.896-8.04zm-192.759 46.387a37.8 37.8 0 1 1 -37.8 37.8 37.84 37.84 0 0 1 37.8-37.8zm-71.428 12.513-10.774-2.148a11.066 11.066 0 0 1 -8.689-13.015l10.937-54.866a11.085 11.085 0 0 1 13.013-8.689l10.774 2.147a11.093 11.093 0 0 1 8.891 10.486c-1.07 1.9-2.122 3.837-3.139 5.835-9.292 15.979-13.555 40.876-13.732 41.93a.211.211 0 0 1 0 .025l-.006.023a129.362 129.362 0 0 0 -1.478 17.867 10.912 10.912 0 0 1 -5.797.405zm32.394-41.442-.772 7.911a14.746 14.746 0 0 1 -16.824 13.161c1.341-6.619 4.894-22.113 10.777-33.623.322.181.66.381 1.008.6a12.59 12.59 0 0 1 5.811 11.951zm165-132.564a5.688 5.688 0 0 1 4.9.666 5.373 5.373 0 0 1 2.413 3.99c1.168 12.433 2.905 34.917 1.5 46.606-.432 1.112-4.238 9.08-23.426 8.79-.019 0-6.314-1.065-9.127-1.206v-53.116a180.013 180.013 0 0 0 23.738-5.731zm-74.049 58.788h-9.072v-55.217a4.536 4.536 0 0 1 9.072 0zm7-50.291c3.094.11 6.2.185 9.274.185 3.64 0 7.314-.1 10.963-.3v50.41h-20.239zm36.309 50.291h-9.072v-55.217a4.536 4.536 0 0 1 9.072 0zm-69.053-99.948h56.072a12.994 12.994 0 0 1 12.979 12.98v21.144a11.527 11.527 0 0 0 -15.85 8.364c-6.853.393-13.781.414-20.658.152a11.522 11.522 0 0 0 -22.179-1.816 232.189 232.189 0 0 1 -23.344-4.125v-23.719a12.994 12.994 0 0 1 12.98-12.98zm-23.121 100.624c-2.889-1.2-3.919-5.021-4.267-8.057-1.28-11.164-1.656-28.325 1.128-43.008a8.012 8.012 0 0 1 3.575-5.265 8.408 8.408 0 0 1 6.582-1.12 237.791 237.791 0 0 0 25.773 4.617v52.154h-25.366a41.861 41.861 0 0 0 -7.425.679zm150.237 177.624a37.8 37.8 0 1 1 37.8-37.8 37.841 37.841 0 0 1 -37.8 37.8zm54.749-90.335a12.457 12.457 0 0 1 -11.886-12.458v-11.978a17.853 17.853 0 0 1 11.315 5.525c5.234 5.717 6.22 14.443 6.339 19.182z"/><path d="m111.686 150.174a27.593 27.593 0 0 0 -5.248 3.784 83.521 83.521 0 0 0 -18.474 25.7 11.764 11.764 0 0 0 10.636 16.782h7.632a10.676 10.676 0 0 0 10.668-10.664v-32.548a3.5 3.5 0 0 0 -5.211-3.054zm-1.789 35.6a3.669 3.669 0 0 1 -3.665 3.664h-7.632a4.765 4.765 0 0 1 -4.306-6.8 77.419 77.419 0 0 1 15.6-22.313z"/><path d="m171.777 186.454v-29.833a10 10 0 0 0 -9.987-9.987h-26.87a10 10 0 0 0 -9.986 9.987v29.833a10 10 0 0 0 9.986 9.986h26.87a10 10 0 0 0 9.987-9.986zm-39.843 0v-29.833a2.99 2.99 0 0 1 2.986-2.987h26.87a2.99 2.99 0 0 1 2.987 2.987v29.833a2.99 2.99 0 0 1 -2.987 2.986h-26.87a2.99 2.99 0 0 1 -2.986-2.986z"/><path d="m236.882 191.309a11.716 11.716 0 0 0 1.245-10.876 118.141 118.141 0 0 0 -13.313-25.221 20.691 20.691 0 0 0 -16.784-8.578h-17.589a10.639 10.639 0 0 0 -10.627 10.627v28.552a10.639 10.639 0 0 0 10.627 10.627h36.723a11.761 11.761 0 0 0 9.718-5.131zm-50.068-5.5v-28.548a3.631 3.631 0 0 1 3.627-3.627h17.589a13.672 13.672 0 0 1 11.1 5.659 111.1 111.1 0 0 1 12.48 23.685 4.75 4.75 0 0 1 -4.442 6.462h-36.727a3.631 3.631 0 0 1 -3.627-3.627z"/><path d="m108.641 294.013a22.687 22.687 0 1 0 -22.688-22.686 22.711 22.711 0 0 0 22.688 22.686zm0-38.374a15.687 15.687 0 1 1 -15.688 15.688 15.7 15.7 0 0 1 15.688-15.688z"/><path d="m261.93 248.639a22.687 22.687 0 1 0 22.687 22.688 22.714 22.714 0 0 0 -22.687-22.688zm0 38.374a15.687 15.687 0 1 1 15.687-15.686 15.705 15.705 0 0 1 -15.687 15.686z"/><path d="m128.434 206.165a3.5 3.5 0 0 0 0 7h10.16a3.5 3.5 0 0 0 0-7z"/><path d="m183.314 206.165a3.5 3.5 0 0 0 0 7h10.161a3.5 3.5 0 0 0 0-7z"/><path d="m89.605 132.622a3.5 3.5 0 0 0 4.384-2.3c2.748-8.792 2.168-16.745-1.675-23-3.48-5.663-9.506-9.47-16.967-10.719a23.135 23.135 0 0 0 -26.637 19c-1.71 10.208 4.19 18.473 14.69 20.566a11.846 11.846 0 0 0 2.351.234c5.97 0 10.97-4.518 12.906-9.357a11.728 11.728 0 0 0 -4.745-14.8 3.5 3.5 0 0 0 -3.742 5.916 4.728 4.728 0 0 1 1.987 6.285c-1.128 2.82-4.279 5.485-7.388 4.857-6.817-1.359-10.237-6.05-9.15-12.545a16.135 16.135 0 0 1 18.577-13.25c5.514.923 9.719 3.51 12.159 7.48 2.753 4.48 3.084 10.444.958 17.248a3.5 3.5 0 0 0 2.292 4.385z"/></svg>