<svg width="900" height="540" viewBox="0 0 900 540" fill="none" xmlns="http://www.w3.org/2000/svg">
<g clip-path="url(#clip0_857_109205)">
<path d="M0 0H900V540H0V0Z" fill="#012169"/>
<path d="M104.905 0.000407461L-2.09769e-05 0.000403119L-1.91167e-05 63.0105L795.105 540.005L900.001 540.005L900.001 476.985L104.905 0.000407461Z" fill="white"/>
<path d="M900.001 63.0104L900.001 0.000255775L795.096 0.000229205L-4.1975e-05 476.985L-4.70215e-05 540.005L104.896 540.005L900.001 63.0104Z" fill="white"/>
<path d="M360 0H540V540H360V0Z" fill="white"/>
<path d="M0 180H900V360H0V180Z" fill="white"/>
<path d="M396 0H504V540H396V0Z" fill="#C8102E"/>
<path d="M0 216H900V324H0V216Z" fill="#C8102E"/>
<path d="M900 540.005V498.017L669.921 359.997H599.944L900 540.005Z" fill="#C8102E"/>
<path d="M0 0L1.24929e-06 41.9788L230.07 179.998L300.038 179.998L0 0Z" fill="#C8102E"/>
<path d="M540.004 179.998H600.028L900.001 0H830.098L540.004 174.036V179.998Z" fill="#C8102E"/>
<path d="M359.996 359.997H299.991L0.0742188 539.912V540.005H69.9118L359.996 365.978V359.997Z" fill="#C8102E"/>
</g>
<defs>
<clipPath id="clip0_857_109205">
<rect width="900" height="540" fill="white"/>
</clipPath>
</defs>
</svg>
