<svg id="Capa_1" enable-background="new 0 0 492 492" height="512" viewBox="0 0 492 492" width="512" xmlns="http://www.w3.org/2000/svg"><path d="m486 458.555h-48.545v-343.091c-.018-15.357-12.462-27.801-27.819-27.818h-174.545c-15.356.017-27.801 12.462-27.818 27.818v81.272h-124.909c-15.357.018-27.801 12.462-27.819 27.819v234h-48.545c-3.314 0-6 2.686-6 6s2.686 6 6 6h272.706c.72.137 1.458.137 2.178 0h62.209c.719.137 1.458.137 2.177 0h140.73c3.314 0 6-2.686 6-6s-2.686-6-6-6zm-266.727-343.091c.009-8.732 7.086-15.809 15.818-15.818h174.545c8.732.009 15.809 7.086 15.819 15.818v343.091h-75.273v-42.443h18.974c3.314 0 6-2.686 6-6s-2.686-6-6-6h-114.335c-3.314 0-6 2.686-6 6s2.686 6 6 6h18.979v42.443h-54.527zm118.909 300.648v42.443h-52.382v-42.443zm-271.637-191.557c.01-8.732 7.087-15.809 15.819-15.819h124.909v249.819h-140.728z"/><path d="m246 165.102h152.727c3.314 0 6-2.686 6-6s-2.686-6-6-6h-152.727c-3.314 0-6 2.686-6 6s2.686 6 6 6z"/><path d="m246 211.484h152.727c3.314 0 6-2.686 6-6s-2.686-6-6-6h-152.727c-3.314 0-6 2.686-6 6s2.686 6 6 6z"/><path d="m246 257.868h152.727c3.314 0 6-2.686 6-6s-2.686-6-6-6h-152.727c-3.314 0-6 2.686-6 6s2.686 6 6 6z"/><path d="m246 304.253h152.727c3.314 0 6-2.686 6-6s-2.686-6-6-6h-152.727c-3.314 0-6 2.686-6 6s2.686 6 6 6z"/><path d="m246 350.637h152.727c3.314 0 6-2.686 6-6s-2.686-6-6-6h-152.727c-3.314 0-6 2.686-6 6s2.686 6 6 6z"/><path d="m95.455 263.281h82.909c3.314 0 6-2.686 6-6s-2.686-6-6-6h-82.909c-3.314 0-6 2.686-6 6 0 3.313 2.686 6 6 6z"/><path d="m178.364 292.19h-82.909c-3.314 0-6 2.686-6 6s2.686 6 6 6h82.909c3.314 0 6-2.686 6-6s-2.686-6-6-6z"/><path d="m178.364 333.102h-82.909c-3.314 0-6 2.686-6 6s2.686 6 6 6h82.909c3.314 0 6-2.686 6-6s-2.686-6-6-6z"/><path d="m178.364 374.009h-82.909c-3.314 0-6 2.686-6 6s2.686 6 6 6h82.909c3.314 0 6-2.686 6-6s-2.686-6-6-6z"/><path d="m178.364 414.918h-82.909c-3.314 0-6 2.686-6 6s2.686 6 6 6h82.909c3.314 0 6-2.686 6-6s-2.686-6-6-6z"/><path d="m150.854 175.876c2.786 0 5.606-1.278 5.606-3.721v-51.053c0-2.517-2.815-3.643-5.606-3.643-3.405 0-5.605 1.43-5.605 3.643v20h-16.675v-20c0-2.517-2.815-3.643-5.605-3.643-3.406 0-5.607 1.43-5.607 3.643v51.058c0 2.557 2.907 3.721 5.607 3.721 2.785 0 5.605-1.278 5.605-3.721v-22.05h16.675v22.045c0 2.557 2.905 3.721 5.605 3.721z"/><path d="m229.384 56.202c.706 2.172 2.584 3.755 4.844 4.083l12.748 1.853 5.7 11.552c1.466 2.972 5.064 4.192 8.036 2.725 1.183-.584 2.141-1.542 2.725-2.725l5.7-11.552 12.748-1.853c3.279-.477 5.551-3.522 5.074-6.801-.19-1.306-.805-2.512-1.749-3.433l-9.225-8.991 2.178-12.7c.56-3.266-1.633-6.368-4.899-6.928-1.301-.223-2.639-.011-3.807.603l-11.4 5.995-11.4-5.995c-2.935-1.539-6.561-.407-8.1 2.528-.611 1.166-.822 2.5-.6 3.797l2.177 12.7-9.234 8.988c-1.636 1.595-2.224 3.981-1.516 6.154zm21.378-8.751c1.414-1.378 2.06-3.364 1.726-5.311l-.656-3.823 3.434 1.8c1.748.92 3.836.92 5.584 0l3.433-1.8-.656 3.823c-.334 1.947.312 3.933 1.726 5.311l2.777 2.707-3.838.558c-1.954.284-3.644 1.511-4.518 3.282l-1.716 3.479-1.717-3.479c-.874-1.771-2.564-2.998-4.518-3.282l-3.838-.558z"/><path d="m293.69 56.202c.706 2.172 2.584 3.755 4.844 4.083l12.748 1.853 5.7 11.552c1.466 2.972 5.064 4.192 8.036 2.725 1.183-.584 2.141-1.542 2.725-2.725l5.7-11.552 12.748-1.853c3.279-.477 5.551-3.522 5.074-6.801-.19-1.306-.805-2.512-1.749-3.433l-9.225-8.991 2.178-12.7c.56-3.266-1.633-6.368-4.899-6.928-1.301-.223-2.639-.011-3.807.603l-11.4 5.995-11.4-5.995c-2.933-1.542-6.561-.413-8.102 2.52-.614 1.168-.825 2.505-.603 3.805l2.178 12.7-9.225 8.991c-1.637 1.593-2.226 3.978-1.521 6.151zm21.378-8.751c1.414-1.378 2.06-3.364 1.726-5.311l-.656-3.823 3.434 1.8c1.748.92 3.836.92 5.584 0l3.433-1.8-.656 3.823c-.334 1.947.312 3.933 1.726 5.311l2.777 2.707-3.838.558c-1.954.284-3.644 1.511-4.518 3.282l-1.716 3.479-1.717-3.479c-.874-1.771-2.564-2.998-4.518-3.282l-3.838-.558z"/><path d="m358 56.202c.706 2.172 2.583 3.754 4.843 4.083l12.748 1.853 5.7 11.552c1.467 2.971 5.065 4.191 8.036 2.724 1.183-.584 2.14-1.541 2.724-2.724l5.7-11.552 12.749-1.856c3.279-.477 5.551-3.522 5.074-6.801-.19-1.306-.805-2.512-1.749-3.433l-9.225-8.991 2.177-12.7c.56-3.266-1.634-6.367-4.901-6.927-1.3-.223-2.638-.011-3.805.603l-11.4 5.995-11.4-5.995c-2.933-1.542-6.561-.415-8.103 2.518-.614 1.168-.826 2.506-.603 3.807l2.178 12.7-9.225 8.991c-1.636 1.594-2.225 3.98-1.518 6.153zm21.378-8.751c1.414-1.379 2.059-3.365 1.725-5.311l-.656-3.823 3.434 1.8c1.748.92 3.836.92 5.584 0l3.433-1.8-.655 3.824c-.334 1.946.311 3.932 1.725 5.31l2.778 2.707-3.839.558c-1.954.284-3.643 1.511-4.517 3.282l-1.717 3.479-1.717-3.479c-.874-1.771-2.563-2.998-4.517-3.282l-3.839-.558z"/></svg>