<svg id="Layer_1" enable-background="new 0 0 68 68" height="512" viewBox="0 0 68 68" width="512" xmlns="http://www.w3.org/2000/svg"><g><g><path d="m42.77593 4.32426c-3.94091 3.75968-4.08999 10.00396-.33298 13.947s9.99741 4.09168 13.93832.33201 2.89443-16.77615 2.89443-16.77615-12.55886-1.26253-16.49977 2.49714z" fill="#31cfff"/></g><g><g><path d="m51.40187 34.32442c0 8.10485-6.56609 14.67458-14.67096 14.67458s-14.67097-6.56974-14.67097-14.67458c0-8.10123 6.5661-14.67097 14.67097-14.67097s14.67096 6.56974 14.67096 14.67097z" fill="#31cfff"/></g></g><g><path d="m14.4675 19.57013 3.31767 8.00957c1.4795 3.57183 1.59112 7.56355.31353 11.21248v.00001l-5.28086 2.1874h-.00001c-3.48357-1.67678-6.22722-4.57829-7.70672-8.15012l-3.27047-7.89561c-.50716-1.22439.05608-2.70392 1.3056-3.14554.55227-.19519 1.13241-.16507 1.63496.04309.53992.22799.9963.65764 1.23692 1.23856-.48342-1.16708.0703-2.50389 1.23738-2.98731.58617-.2428 1.21269-.22389 1.75038-.00117.53992.22799.9963.65764 1.23692 1.23856-.48342-1.16708.0703-2.50388 1.23738-2.9873.58617-.2428 1.21269-.22389 1.75038-.00117.53993.22799.99631.65764 1.23694 1.23855z" fill="#31cfff"/></g><g><path d="m54.52814 38.95716 8.12463-19.6146c.40555-.97908 1.52801-1.44402 2.50709-1.03847h.00001c.78095.32348 1.25824 1.11991 1.17527 1.96113l-1.10189 11.17158c-.37968 3.84935-2.34505 7.36678-5.42424 9.70776z" fill="#31cfff"/></g><g fill="#02166f"><path d="m36.73089 49.74881c8.50293 0 15.4209-6.91943 15.4209-15.42432 0-8.50293-6.91797-15.4209-15.4209-15.4209s-15.4209 6.91797-15.4209 15.4209c0 8.50489 6.91797 15.42432 15.4209 15.42432zm0-29.34522c7.67578 0 13.9209 6.24512 13.9209 13.9209 0 7.67773-6.24512 13.92432-13.9209 13.92432s-13.9209-6.24658-13.9209-13.92432c0-7.67578 6.24512-13.9209 13.9209-13.9209z"/><path d="m40.7802 25.38797c3.49902 1.58789 5.75977 5.0957 5.75977 8.93701 0 .41406.33594.75.75.75s.75-.33594.75-.75c0-4.42822-2.60645-8.47266-6.63965-10.30322-.37744-.1709-.82227-.00342-.99316.37305-.1709.37744-.00391.82177.37304.99316z"/><path d="m36.73089 24.5159c.54688 0 1.09424.04541 1.62695.13428.0415.00684.0835.01025.12451.01025.35986 0 .67725-.25977.73877-.62646.06836-.4082-.20752-.79492-.61621-.86328-.61426-.10254-1.24463-.15479-1.87402-.15479-.41406 0-.75.33594-.75.75s.33594.75.75.75z"/><path d="m18.89324 38.75101c1.23608-3.74902 1.09839-7.8042-.41528-11.45825l-3.31738-8.00977c-.63075-1.5224-2.38943-2.297-3.96729-1.64307-.8421.34891-1.44556 1.03032-1.71533 1.8335-.76713-.38357-1.67689-.428-2.50977-.0835-.84082.34814-1.44238 1.0332-1.71338 1.83447-.70864-.35715-1.56637-.42386-2.3584-.14307-1.66473.58787-2.41683 2.5268-1.74854 4.13965l3.27051 7.89551c1.51343 3.65405 4.28369 6.61865 7.80811 8.39551l9.37646 22.63672c.75651 1.82541 2.86302 2.71962 4.71436 1.95264 1.8416-.7627 2.71502-2.87234 1.95215-4.71436zm-13.08911-6.20874-3.27051-7.89551c-.3433-.82823.02137-1.85401.86279-2.15137.77801-.27379 1.6186.11368 1.92871.86182l3.42725 8.27295c.16006.3861.60268.56297.97998.40576.38281-.15869.56445-.59717.40576-.97998l-3.42725-8.27295c-.00049-.00098-.00098-.00195-.00098-.00293-.32227-.78174.05078-1.68066.83252-2.00439.79682-.33201 1.6864.05902 2.00586.82813.00049.00098.00098.00195.00146.00342l3.42725 8.27344c.16006.3861.60268.56297.97998.40576.38281-.15869.56445-.59717.40576-.97998l-3.42725-8.27344c-.32483-.78382.04595-1.68198.83203-2.00732.80317-.33242 1.68876.06301 2.00732.83154l3.31738 8.00977c1.36865 3.30371 1.50928 6.9707.40479 10.36279-.16025.06638-4.94337 2.0475-4.65186 1.92676-3.17917-1.61769-5.67234-4.31056-7.04099-7.61427zm19.93946 32.17334c-1.05007.43417-2.303-.04881-2.75488-1.14111l-9.19092-22.18896c.11824-.04897 4.02272-1.66618 3.89502-1.61328l9.19092 22.18896c.4452 1.07516-.06418 2.30843-1.14014 2.75439z"/><path d="m65.44671 17.61111c-1.35693-.56201-2.92334.08496-3.48682 1.44434l-3.46533 8.36597c-2.97046-9.35083-11.78467-15.93237-21.76367-15.93237-7.66357 0-14.77685 3.81592-19.02881 10.20752-.22949.34521-.13574.81055.20898 1.04004.34473.22852.81006.13623 1.04004-.20898 3.97314-5.97266 10.61963-9.53857 17.77978-9.53857 9.9541 0 18.67676 7.00439 20.8291 16.6875-11.20052 27.04273 7.90117-19.07281-9.38574 22.66089-3.41919 2.17554-7.37012 3.32446-11.44336 3.32446-3.46191 0-6.89795-.84766-9.93652-2.45068-.3667-.19385-.81982-.05322-1.01318.31299s-.05322.82031.31299 1.01318c3.25391 1.71729 6.93164 2.62451 10.63672 2.62451 3.68701 0 7.27539-.89233 10.51074-2.57275l-2.22803 5.37891c-.76301 1.84234.11063 3.951 1.95264 4.71387 1.83722.76147 3.95265-.11345 4.71387-1.95264l8.75317-21.13184c3.13281-2.45898 5.15454-6.11816 5.54663-10.08691l1.10205-11.17188c.11524-1.17824-.5415-2.27443-1.63525-2.72756zm-15.15235 44.54444c-.43842 1.05878-1.67028 1.58954-2.75439 1.14063-1.07388-.44468-1.58711-1.67564-1.14063-2.75391.38794-.93653-1.60695 3.87933 8.53516-20.60474l3.89453 1.61304zm14.19239-30.79248c-.34424 3.48779-2.08447 6.71509-4.79639 8.9209l-4.18188-1.73242c.60698-1.46546 6.89501-16.64717 7.83716-18.92188.24658-.59521.93115-.87891 1.52734-.63281.479.19873.7666.67871.71582 1.19482z"/></g></g></svg>