<svg width="24" height="24" viewBox="0 0 24 24" fill="none" xmlns="http://www.w3.org/2000/svg">
<path d="M12 1.33325C13.4728 1.33325 14.6667 2.52717 14.6667 3.99992C14.6667 5.47267 13.4728 6.66659 12 6.66659C10.5273 6.66659 9.33333 5.47267 9.33333 3.99992C9.33333 2.52717 10.5273 1.33325 12 1.33325ZM14 7.33325H13.5267C12.5804 7.76838 11.4604 7.78717 10.4733 7.33325H10C8.89542 7.33325 8 8.22867 8 9.33325V14.9999C8 15.5522 8.44771 15.9999 9 15.9999H9.66667V21.6666C9.66667 22.2189 10.1144 22.6666 10.6667 22.6666H13.3333C13.8856 22.6666 14.3333 22.2189 14.3333 21.6666V15.9999H15C15.5523 15.9999 16 15.5522 16 14.9999V9.33325C16 8.22867 15.1046 7.33325 14 7.33325Z" fill="#333333"/>
</svg>
