<svg id="Icons" height="512" viewBox="0 0 74 74" width="512" xmlns="http://www.w3.org/2000/svg"><path d="m36.934 58.2a1 1 0 0 1 -.994-1.115l1.8-15.457c-4.45 2.823-16.083 9.459-24.768 7.844a5.373 5.373 0 0 1 -3.661-2.608l-7.176-12.369a1 1 0 0 1 .451-1.412l4.385-1.993a1 1 0 0 1 .991.094l9.051 6.4 42.845-21.139a6.22 6.22 0 0 1 2.942-.645 14.109 14.109 0 0 1 7.965 2.569 3.155 3.155 0 0 1 1.227 2.4 3.123 3.123 0 0 1 -1.048 2.453c-2.321 2.063-7.712 6.184-17.866 10.757l-10.359 21.947a1 1 0 0 1 -.575.518l-4.881 1.7a.989.989 0 0 1 -.329.056zm2.043-19.591a1 1 0 0 1 .993 1.115l-1.859 16.008 2.978-1.039 10.338-21.9a1 1 0 0 1 .5-.487c10.127-4.523 15.431-8.569 17.692-10.577a1.119 1.119 0 0 0 .378-.889 1.168 1.168 0 0 0 -.452-.884 12.1 12.1 0 0 0 -6.811-2.156 4.288 4.288 0 0 0 -1.991.438l-43.379 21.4a1 1 0 0 1 -1.019-.081l-9.069-6.409-2.857 1.3 6.617 11.417a3.375 3.375 0 0 0 2.3 1.643c9.9 1.845 24.919-8.609 25.069-8.714a1 1 0 0 1 .572-.183z"/><path d="m30.54 32.931a.99.99 0 0 1 -.508-.139l-13.808-8.152a1 1 0 0 1 -.029-1.7l4.54-2.894a.991.991 0 0 1 .784-.126l20.8 5.281a1 1 0 1 1 -.492 1.938l-20.382-5.179-2.8 1.786 12.405 7.324a1 1 0 0 1 -.51 1.861z"/></svg>