<svg id="Layer_1" viewBox="0 0 96 96" xmlns="http://www.w3.org/2000/svg" data-name="Layer 1"><path d="m52.38 33.24a1 1 0 0 0 1-1 1.64 1.64 0 1 1 3.27 0 1 1 0 0 0 2 0 3.64 3.64 0 1 0 -7.27 0 1 1 0 0 0 1 1z"/><path d="m70.38 64.9a5.6 5.6 0 0 0 -2.88-.48c-1.29-7.56-4.71-12.82-8.37-17.31a16.85 16.85 0 0 0 6.42-8.22 4.71 4.71 0 0 0 .53 0 4.84 4.84 0 0 0 4.6-5.05 4.85 4.85 0 0 0 -4.6-5 3.15 3.15 0 0 0 -.53 0c-2.23-6.35-8.55-11.06-16.22-11.56.87-2.22 2.86-3.89 6-5.08a1 1 0 0 0 -.7-1.87c-3.35 1.26-5.65 3.09-6.86 5.45-1.31-2.11-2.68-3.19-4.14-3.26a1 1 0 0 0 -1.05.94 1 1 0 0 0 .94 1c.51 0 1.5.46 2.83 2.79-7.51.59-13.73 5.27-15.94 11.56a3.15 3.15 0 0 0 -.53 0 4.85 4.85 0 0 0 -4.6 5 4.84 4.84 0 0 0 4.6 5.05 4.71 4.71 0 0 0 .53 0 16.85 16.85 0 0 0 6.42 8.22c-3.66 4.49-7.08 9.75-8.37 17.31a5.6 5.6 0 0 0 -2.88.48c-3.42 1.59-4.54 6.47-2.49 10.87 2.05 4.41 6.5 6.7 9.92 5.11a5.66 5.66 0 0 0 2.61-2.49c1.58.32 3.16.57 4.7.77.49 1 1 1.93 1.58 2.9v.09a3.59 3.59 0 0 0 6.1 2.63 3.64 3.64 0 0 0 2.47 1 3.59 3.59 0 0 0 3.59-3.58v-.1c.56-1 1.09-1.92 1.58-2.89 1.54-.2 3.12-.45 4.7-.77a5.66 5.66 0 0 0 2.66 2.47c3.42 1.59 7.87-.7 9.92-5.11s.88-9.28-2.54-10.87zm-4.29-34.08a2.86 2.86 0 0 1 2.59 3 2.85 2.85 0 0 1 -2.59 3.05 15.16 15.16 0 0 0 0-6.1zm-36.18 6.1a2.85 2.85 0 0 1 -2.59-3.05 2.86 2.86 0 0 1 2.59-3 15.16 15.16 0 0 0 0 6.1zm2.2.58c0-.06 0-.12 0-.17a13.21 13.21 0 0 1 0-6.91 1.21 1.21 0 0 0 0-.18c1.81-6.31 8.24-11 15.87-11 7.63 0 14.06 4.69 15.87 11a1.21 1.21 0 0 0 0 .18 13.21 13.21 0 0 1 0 6.91v.17c-1.81 6.32-8.25 11-15.89 11s-14.04-4.68-15.85-11zm25.33 10.69a7.63 7.63 0 0 0 -.35 2.48c0 .88-.05 1.8-.43 2.17s-1.27.4-2.15.43a7 7 0 0 0 -2.58.39 7 7 0 0 0 -2 1.51c-.65.62-1.32 1.26-1.9 1.26s-1.25-.64-1.9-1.26a7.12 7.12 0 0 0 -2-1.51 7.06 7.06 0 0 0 -2.59-.39c-.88 0-1.78-.05-2.15-.43s-.41-1.29-.43-2.17a7.75 7.75 0 0 0 -.35-2.48 20 20 0 0 0 18.82 0zm-23.01 27.81a5.58 5.58 0 0 1 -.24.85.87.87 0 0 0 -.07.17 3.88 3.88 0 0 1 -1.91 2.1c-2.42 1.12-5.68-.73-7.26-4.14-1.59-3.41-.91-7.09 1.51-8.22a3.83 3.83 0 0 1 2.46-.22.9.9 0 0 0 .28.08 7.73 7.73 0 0 1 4.48 4.27 8.2 8.2 0 0 1 .75 5.11zm12.63 6.63v.09a1.57 1.57 0 0 1 -1.5 1.06 1.59 1.59 0 1 1 0-3.17 2 2 0 0 1 .43 0 .52.52 0 0 0 .16.06 1.62 1.62 0 0 1 .91.94 1 1 0 0 0 0 .14 1.68 1.68 0 0 1 0 .4 1.54 1.54 0 0 1 0 .43zm3.41 1.15a1.59 1.59 0 0 1 -1.42-.87 3.35 3.35 0 0 0 .07-.71 3.29 3.29 0 0 0 -.07-.71 1.59 1.59 0 0 1 .87-.78h.09a1.43 1.43 0 0 1 .46-.07 1.59 1.59 0 1 1 0 3.17zm9.14-7.37v.13c-1 .2-2 .37-3 .51a40.7 40.7 0 0 0 3.39-11.8 1 1 0 0 0 -2-.25 39.63 39.63 0 0 1 -3.88 12.71.52.52 0 0 0 -.07.15q-.45.91-1 1.83a3.64 3.64 0 0 0 -1.76-1c1.75-3.67 2.07-7.33 2.38-10.89.08-1 .17-2 .29-3a1 1 0 0 0 -2-.24c-.13 1-.22 2-.31 3.07-.34 3.91-.66 7.6-2.76 11.3a3.9 3.9 0 0 0 -1 .65 3.68 3.68 0 0 0 -1-.66c-2.1-3.7-2.42-7.39-2.76-11.29-.09-1-.18-2-.31-3.07a1 1 0 0 0 -2 .24c.12 1 .21 2 .29 3 .31 3.56.63 7.22 2.38 10.89a3.64 3.64 0 0 0 -1.76 1q-.51-.92-1-1.83a.52.52 0 0 0 -.07-.15 39.63 39.63 0 0 1 -3.66-12.71 1 1 0 0 0 -2 .24 40.7 40.7 0 0 0 3.34 11.76c-1-.14-2-.31-3-.51v-.13a10.25 10.25 0 0 0 -.8-6.36 10 10 0 0 0 -5.09-5.1 32 32 0 0 1 6.44-14.6v.42a5 5 0 0 0 1 3.53 5 5 0 0 0 3.51 1 6.12 6.12 0 0 1 1.88.23 6.13 6.13 0 0 1 1.41 1.12 5 5 0 0 0 3.31 1.83 5 5 0 0 0 3.28-1.81 6 6 0 0 1 1.42-1.12 6 6 0 0 1 1.87-.23 5 5 0 0 0 3.51-1 5 5 0 0 0 1-3.53c0-.14 0-.28 0-.42a32 32 0 0 1 6.44 14.6 10 10 0 0 0 -5.06 5.08 10.25 10.25 0 0 0 -.85 6.36zm11.44-1.43c-1.58 3.41-4.84 5.26-7.26 4.14a3.82 3.82 0 0 1 -1.87-2 1.28 1.28 0 0 0 -.14-.34 4.11 4.11 0 0 1 -.21-.75 8.2 8.2 0 0 1 .71-5.1 7.71 7.71 0 0 1 4.48-4.27.9.9 0 0 0 .28-.08 3.83 3.83 0 0 1 2.46.22c2.5 1.04 3.14 4.72 1.55 8.13z"/><path d="m44.62 32.24a3.64 3.64 0 1 0 -7.27 0 1 1 0 0 0 2 0 1.64 1.64 0 1 1 3.27 0 1 1 0 0 0 2 0z"/><path d="m52 40.66a1 1 0 0 0 -1-1h-6a1 1 0 0 0 -1 1 4 4 0 0 0 8.08 0zm-5.82 1h3.56a2 2 0 0 1 -3.56 0z"/></svg>