<svg width="512" height="512" viewBox="0 0 512 512" fill="none" xmlns="http://www.w3.org/2000/svg">
<path fill-rule="evenodd" clip-rule="evenodd" d="M444.868 248.635C445.206 246.755 445.356 244.845 445.315 242.935L443.5 117.856C443.494 111.667 441.572 105.632 437.998 100.579C434.424 95.5268 429.374 91.7046 423.54 89.638L266.606 31.579C259.783 28.9363 252.219 28.9363 245.396 31.579L88.457 89.638C82.6247 91.7063 77.5754 95.5289 74.0022 100.581C70.429 105.633 68.507 111.668 68.5 117.856L66.682 242.932C66.6416 244.842 66.7923 246.752 67.132 248.632C85.9 356.1 138.167 424.93 241.91 478.82C246.234 481.173 251.078 482.406 256 482.406C260.922 482.406 265.766 481.173 270.09 478.82C373.837 424.93 426.105 356.1 444.868 248.636V248.635ZM457.1 117.661C457.09 108.718 454.313 99.997 449.149 92.6952C443.986 85.3934 436.689 79.8686 428.26 76.879L271.325 18.82C261.454 15.06 250.545 15.06 240.674 18.82L83.736 76.879C75.3088 79.8703 68.0136 85.3957 62.8508 92.6972C57.6881 99.9987 54.9109 108.719 54.9 117.661L53.08 242.737C53.0291 245.498 53.2471 248.258 53.731 250.977C63.843 308.871 83.687 356.115 114.4 395.391C143.215 432.247 182.872 463.477 235.639 490.891C241.901 494.246 248.895 496.002 255.999 496.002C263.104 496.002 270.098 494.246 276.36 490.891C329.13 463.479 368.785 432.249 397.595 395.391C428.311 356.115 448.162 308.871 458.268 250.977C458.756 248.259 458.974 245.499 458.919 242.738L457.1 117.661Z" fill="#282828"/>
<path fill-rule="evenodd" clip-rule="evenodd" d="M266.605 31.5792C259.782 28.9365 252.218 28.9365 245.395 31.5792L88.457 89.6382C82.6247 91.7064 77.5754 95.5291 74.0022 100.581C70.429 105.634 68.507 111.668 68.5 117.856L66.682 242.932C66.6415 244.842 66.7923 246.752 67.132 248.632C85.9 356.1 138.167 424.93 241.91 478.82C246.234 481.173 251.078 482.406 256 482.406C260.922 482.406 265.766 481.173 270.09 478.82C373.837 424.93 426.105 356.1 444.868 248.636C445.206 246.756 445.356 244.846 445.315 242.936L443.5 117.856C443.494 111.667 441.572 105.632 437.998 100.58C434.424 95.5269 429.374 91.7048 423.54 89.6382L266.605 31.5792Z" fill="#6CF5C2"/>
<path fill-rule="evenodd" clip-rule="evenodd" d="M416.534 117.856L418.351 242.932C418.392 244.842 418.242 246.752 417.904 248.632C399.14 356.1 346.873 424.93 243.125 478.82C242.925 478.925 242.72 479.028 242.518 479.128C246.789 481.333 251.536 482.458 256.342 482.404C261.149 482.35 265.869 481.12 270.09 478.82C373.837 424.93 426.105 356.1 444.868 248.636C445.206 246.756 445.356 244.846 445.315 242.936L443.5 117.856C443.494 111.667 441.572 105.632 437.998 100.58C434.424 95.5269 429.374 91.7048 423.54 89.6382L266.605 31.5792C259.782 28.9365 252.218 28.9365 245.395 31.5792L242.518 32.6432L396.575 89.6432C402.408 91.7098 407.457 95.5313 411.031 100.583C414.605 105.634 416.527 111.668 416.534 117.856Z" fill="#00E499"/>
<path d="M178.819 273.392C177.483 274.728 176.854 276.616 177.123 278.487C177.391 280.357 178.525 281.992 180.183 282.899L206.635 297.365L221.101 323.817C222.008 325.475 223.643 326.609 225.513 326.877C227.384 327.146 229.272 326.517 230.608 325.181L239.794 315.995C241.125 314.664 241.754 312.785 241.493 310.921L238.846 292.011L265.177 265.679L298.518 326.871C299.423 328.532 301.058 329.669 302.93 329.939C304.803 330.209 306.692 329.58 308.03 328.243L320.277 315.995C321.777 314.496 322.373 312.316 321.846 310.262L301.257 230.006L332.525 198.332C332.53 198.327 332.535 198.322 332.539 198.317C336.183 194.666 338 190.062 338 184.904C338 179.738 336.178 175.128 332.525 171.475C328.872 167.822 324.262 166 319.096 166C313.938 166 309.334 167.817 305.683 171.46L273.994 202.743L193.738 182.154C191.684 181.627 189.504 182.223 188.005 183.723L175.757 195.97C174.42 197.308 173.791 199.197 174.061 201.07C174.331 202.942 175.468 204.577 177.129 205.482L238.321 238.823L211.989 265.154L193.079 262.507C191.215 262.246 189.336 262.875 188.005 264.206L178.819 273.392Z" fill="#EFEFEF" stroke="#282828" stroke-width="12" stroke-linejoin="round"/>
</svg>
