<svg width="24" height="24" viewBox="0 0 24 24" fill="none" xmlns="http://www.w3.org/2000/svg">
<path d="M11.9984 8.2223C13.5332 8.2223 14.7762 6.97925 14.7762 5.44453C14.7762 3.9098 13.5332 2.66675 11.9984 2.66675C10.4637 2.66675 9.22066 3.9098 9.22066 5.44453C9.22066 6.97925 10.4637 8.2223 11.9984 8.2223ZM10.1443 16.8612L11.0332 15.7501L8.89774 13.9723L7.30399 15.9654C6.90816 16.4584 6.89774 17.1598 7.27622 17.6667L8.94288 19.889C9.21719 20.2536 9.63386 20.4445 10.054 20.4445C10.3422 20.4445 10.6373 20.3542 10.8873 20.1667C11.5019 19.7084 11.6234 18.8369 11.1651 18.2223L10.1443 16.8612ZM15.0991 13.9723L12.9637 15.7501L13.8526 16.8612L12.8318 18.2223C12.3734 18.8369 12.495 19.7084 13.1095 20.1667C13.3595 20.3542 13.6512 20.4445 13.9429 20.4445C14.3665 20.4445 14.7832 20.2536 15.054 19.889L16.7207 17.6667C17.0991 17.1598 17.0887 16.4584 16.6929 15.9654L15.0991 13.9723ZM18.4116 7.70147C17.9707 7.073 17.1061 6.92369 16.4776 7.36119L15.0679 8.35078C13.238 9.6355 10.7554 9.6355 8.92899 8.35078L7.51927 7.36466C6.8908 6.92369 6.02622 7.07647 5.58524 7.70147C5.14427 8.32994 5.29705 9.19453 5.92205 9.6355L7.33177 10.6251C7.92205 11.0383 8.56094 11.3508 9.22066 11.5938V12.6667H14.7762V11.5973C15.4359 11.3542 16.0748 11.0417 16.6651 10.6286L18.0748 9.63897C18.7033 9.19453 18.8526 8.32994 18.4116 7.70147Z" fill="#333333"/>
</svg>
