<?xml version="1.0" encoding="UTF-8"?>
<svg xmlns="http://www.w3.org/2000/svg" xmlns:xlink="http://www.w3.org/1999/xlink" version="1.1" id="Capa_1" x="0px" y="0px" viewBox="0 0 512 512" style="enable-background:new 0 0 512 512;" xml:space="preserve" width="512" height="512">
<g>
	<path d="M257.004,235.63c29.105,0,52.785-24.247,52.785-54.052s-23.68-54.052-52.785-54.052s-52.785,24.247-52.785,54.052&#10;&#9;&#9;S227.898,235.63,257.004,235.63z M257.004,147.527c18.078,0,32.785,15.275,32.785,34.052s-14.707,34.052-32.785,34.052&#10;&#9;&#9;s-32.785-15.275-32.785-34.052S238.926,147.527,257.004,147.527z"/>
	<path d="M281.896,250.916h-49.785c-25.374,0-46.017,21.121-46.017,47.083v60.329c0,5.522,4.478,10,10,10h10.143l14.962,95.482&#10;&#9;&#9;c0.763,4.866,4.955,8.452,9.88,8.452h51.851c4.925,0,9.117-3.586,9.88-8.452l14.961-95.482h10.143c5.522,0,10-4.478,10-10v-60.329&#10;&#9;&#9;C327.913,272.037,307.271,250.916,281.896,250.916z M206.095,297.999c0-14.934,11.671-27.083,26.017-27.083h49.785&#10;&#9;&#9;c14.346,0,26.017,12.149,26.017,27.083v50.329H206.095V297.999z M274.375,452.263h-34.741l-13.151-83.935h61.044L274.375,452.263z"/>
	<path d="M85.131,168.412c34.614,0,62.774-28.862,62.774-64.338s-28.16-64.337-62.774-64.337s-62.774,28.861-62.774,64.337&#10;&#9;&#9;S50.517,168.412,85.131,168.412z M85.131,59.737c23.586,0,42.774,19.89,42.774,44.337c0,24.448-19.188,44.338-42.774,44.338&#10;&#9;&#9;s-42.774-19.89-42.774-44.338C42.356,79.627,61.545,59.737,85.131,59.737z"/>
	<path d="M115.836,183.979h-61.41C24.415,183.979,0,208.985,0,239.721v86.7c0,5.522,4.478,10,10,10h14.434L43.26,463.726&#10;&#9;&#9;c0.726,4.904,4.935,8.537,9.893,8.537h63.957c4.958,0,9.167-3.633,9.893-8.537l18.825-127.305h14.434c5.522,0,10-4.478,10-10v-86.7&#10;&#9;&#9;C170.262,208.985,145.847,183.979,115.836,183.979z M108.479,452.263H61.782l-17.13-115.842h80.957L108.479,452.263z&#10;&#9;&#9; M150.262,316.421H20v-76.7c0-19.708,15.443-35.742,34.426-35.742h61.41c18.982,0,34.426,16.034,34.426,35.742V316.421z"/>
	<path d="M426.823,168.412c34.614,0,62.774-28.862,62.774-64.338s-28.16-64.337-62.774-64.337s-62.775,28.861-62.775,64.337&#10;&#9;&#9;S392.209,168.412,426.823,168.412z M426.823,59.737c23.586,0,42.774,19.89,42.774,44.337c0,24.448-19.188,44.338-42.774,44.338&#10;&#9;&#9;c-23.587,0-42.775-19.89-42.775-44.338C384.048,79.627,403.236,59.737,426.823,59.737z"/>
	<path d="M511.913,369.07l-19.361-145.662c-2.987-22.478-22.337-39.429-45.01-39.429h-41.438c-22.671,0-42.021,16.95-45.01,39.429&#10;&#9;&#9;L341.732,369.07c-0.38,2.856,0.492,5.738,2.391,7.906s4.641,3.411,7.522,3.411h39.247l9.073,82.963&#10;&#9;&#9;c0.555,5.072,4.838,8.913,9.94,8.913h33.834c5.103,0,9.386-3.841,9.94-8.913l9.072-82.963H502c2.882,0,5.624-1.243,7.522-3.411&#10;&#9;&#9;S512.293,371.926,511.913,369.07z M434.774,452.263h-15.902l-7.86-71.876h31.622L434.774,452.263z M363.062,360.387l17.857-134.344&#10;&#9;&#9;c1.672-12.579,12.499-22.064,25.184-22.064h41.438c12.686,0,23.513,9.485,25.184,22.063l17.857,134.345H363.062z"/>
</g>















</svg>
