<svg width="24" height="24" viewBox="0 0 24 24" fill="none" xmlns="http://www.w3.org/2000/svg">
<rect width="24" height="24" fill="white"/>
<path d="M12.0351 7.1321C13.9536 7.1321 15.5144 5.53236 15.5144 3.56602C15.5144 1.59969 13.9536 0 12.0351 0C10.1165 0 8.55566 1.59969 8.55566 3.56602C8.55566 5.53236 10.1165 7.1321 12.0351 7.1321ZM12.0351 1.10855C13.3424 1.10855 14.4059 2.21099 14.4059 3.56602C14.4059 4.92111 13.3424 6.02356 12.0351 6.02356C10.7277 6.02356 9.66421 4.92111 9.66421 3.56602C9.66415 2.21099 10.7277 1.10855 12.0351 1.10855Z" fill="black"/>
<path d="M13.7369 7.99487H10.3331C8.66966 7.99487 7.31641 9.38089 7.31641 11.0845V15.89C7.31641 16.1961 7.56461 16.4443 7.87068 16.4443H8.67072L9.71419 23.5005C9.75443 23.7723 9.98772 23.9737 10.2625 23.9737H13.8075C14.0823 23.9737 14.3156 23.7723 14.3558 23.5005L15.3993 16.4443H16.1993C16.5054 16.4443 16.7536 16.1961 16.7536 15.89V11.0845C16.7536 9.38089 15.4003 7.99487 13.7369 7.99487ZM13.3291 22.8651H10.7408L9.79134 16.4443H14.2786L13.3291 22.8651ZM15.645 15.3358H8.42495V11.0845C8.42495 9.99214 9.28091 9.10342 10.3331 9.10342H13.7369C14.789 9.10342 15.645 9.99214 15.645 11.0845V15.3358Z" fill="black"/>
</svg>
