<svg width="24" height="24" viewBox="0 0 24 24" fill="none" xmlns="http://www.w3.org/2000/svg">
<path d="M9.66482 5.67495C9.66482 4.30803 10.7568 3.19995 12.104 3.19995C13.4511 3.19995 14.5431 4.30803 14.5431 5.67495C14.5431 7.04184 13.4511 8.14995 12.104 8.14995C10.7568 8.14995 9.66482 7.04184 9.66482 5.67495ZM18.2908 5.72215C17.8675 5.29256 17.181 5.29256 16.7577 5.72215L13.823 8.69995H10.3848L7.45019 5.72215C7.02687 5.29256 6.34045 5.29256 5.91713 5.72215C5.49377 6.15173 5.49377 6.8482 5.91713 7.27779L9.12279 10.5306V19.6999C9.12279 20.3075 9.60815 20.7999 10.2069 20.7999H10.7489C11.3476 20.7999 11.8329 20.3075 11.8329 19.6999V15.85H12.375V19.6999C12.375 20.3075 12.8603 20.7999 13.459 20.7999H14.0011C14.5998 20.7999 15.0851 20.3075 15.0851 19.6999V10.5306L18.2908 7.27775C18.7141 6.84817 18.7141 6.15173 18.2908 5.72215V5.72215Z" fill="#333333"/>
</svg>
