<svg width="24" height="24" viewBox="0 0 24 24" fill="none" xmlns="http://www.w3.org/2000/svg">
<path d="M12 13.4295C12.4097 13.4295 12.8154 13.3488 13.194 13.192C13.5725 13.0352 13.9165 12.8053 14.2062 12.5156C14.4959 12.2259 14.7257 11.882 14.8825 11.5034C15.0393 11.1249 15.12 10.7192 15.12 10.3095C15.12 9.89973 15.0393 9.49402 14.8825 9.11548C14.7257 8.73694 14.4959 8.393 14.2062 8.10328C13.9165 7.81356 13.5725 7.58374 13.194 7.42695C12.8154 7.27015 12.4097 7.18945 12 7.18945C11.1725 7.18945 10.3789 7.51817 9.79383 8.10328C9.20872 8.68839 8.88 9.48198 8.88 10.3095C8.88 11.1369 9.20872 11.9305 9.79383 12.5156C10.3789 13.1007 11.1725 13.4295 12 13.4295Z" stroke="#333333"/>
<path d="M3.61995 8.49C5.58995 -0.169997 18.42 -0.159997 20.38 8.5C21.53 13.58 18.37 17.88 15.6 20.54C14.632 21.4735 13.3397 21.9952 11.995 21.9952C10.6502 21.9952 9.35788 21.4735 8.38995 20.54C5.62995 17.88 2.46995 13.57 3.61995 8.49Z" stroke="#333333"/>
</svg>
