<svg id="Capa_1" enable-background="new 0 0 512 512" height="512" viewBox="0 0 512 512" width="512" xmlns="http://www.w3.org/2000/svg"><g><g clip-rule="evenodd" fill-rule="evenodd"><path d="m224.422 36.709h-96.89c-17.377 0-31.578 14.229-31.578 31.607v167.416c0 17.376 14.201 31.606 31.578 31.606h128.468 128.467c17.378 0 31.607-14.23 31.607-31.606v-167.416c0-17.377-14.229-31.607-31.607-31.607h-96.889c-17.349 0-31.578 14.23-31.578 31.607 0-17.377-14.202-31.607-31.578-31.607z" fill="#77b3ec"/><path d="m391.781 267.339h24.293v-199.023c0-14.854-10.403-27.412-24.293-30.728z" fill="#5e9ad8"/><path d="m95.954 441.529c-21.656 0-39.373 17.717-39.373 39.374v15.846c0 5.017 2.607 7.767 7.767 7.767h383.305c4.903 0 7.767-2.438 7.767-7.767v-15.846c0-21.657-17.717-39.374-39.345-39.374l-171.073-10.488z" fill="#736572"/><path d="m56.581 480.251v.652 15.846c0 5.017 2.607 7.767 7.767 7.767h383.305c4.903 0 7.767-2.438 7.767-7.767v-15.846c0-16.328-10.062-30.387-24.264-36.341v21.119c0 7.994-6.549 14.57-14.57 14.57z" fill="#615260"/><path d="m295.373 154.207h120.701c21.628 0 39.345 17.716 39.345 39.374v208.604c0 21.629-17.717 39.345-39.345 39.345h-160.074-160.046c-21.656 0-39.373-17.716-39.373-39.345v-208.604c0-21.657 17.717-39.374 39.373-39.374h120.701c21.628 0 39.345 17.716 39.345 39.374 0-21.658 17.717-39.374 39.373-39.374z" fill="#91ccff"/><path d="m231.735 267.339h24.265v-199.023c0-14.854-10.403-27.412-24.265-30.728z" fill="#5e9ad8"/><path d="m431.155 157.24c14.201 5.952 24.264 20.012 24.264 36.34v208.604c0 21.629-17.717 39.345-39.345 39.345h-320.12c-16.328 0-30.388-10.034-36.34-24.265h157.551c8.023 0 14.57-6.548 14.57-14.57v-245.454c14.201 5.952 24.265 20.012 24.265 36.34v223.684h135.781c21.657 0 39.374-17.717 39.374-39.345z" fill="#77b3ec"/><g fill="#615260"><path d="m43.258 343.138h26.645c7.994 0 14.57 6.548 14.57 14.57v16.782c0 8.022-6.576 14.57-14.57 14.57h-26.645c-7.994 0-14.543-6.548-14.543-14.57v-16.782c0-8.022 6.549-14.57 14.543-14.57z"/><path d="m468.742 343.138h-26.645c-7.994 0-14.542 6.548-14.542 14.57v16.782c0 8.022 6.548 14.57 14.542 14.57h26.645c7.994 0 14.543-6.548 14.543-14.57v-16.782c0-8.022-6.549-14.57-14.543-14.57z"/><path d="m242.677 343.138h26.646c7.993 0 14.569 6.548 14.569 14.57v16.782c0 8.022-6.576 14.57-14.569 14.57h-26.646c-7.993 0-14.541-6.548-14.541-14.57v-16.782c0-8.022 6.548-14.57 14.541-14.57z"/></g><path d="m115.626 117.81h81.327c10.828 0 19.702 8.844 19.702 19.672v33.449c0 10.829-8.874 19.701-19.702 19.701h-81.327c-10.828 0-19.672-8.872-19.672-19.701v-33.449c0-10.828 8.844-19.672 19.672-19.672z" fill="#d5eaff"/><path d="m143.322 7.512h65.281c8.704 0 15.818 7.087 15.818 15.79v26.844c0 8.703-7.114 15.79-15.818 15.79h-65.281c-8.674 0-15.79-7.087-15.79-15.79v-26.845c0-8.702 7.116-15.789 15.79-15.789z" fill="#b8ddff"/><path d="m396.374 117.81h-81.327c-10.828 0-19.674 8.844-19.674 19.672v33.449c0 10.829 8.846 19.701 19.674 19.701h81.327c10.828 0 19.7-8.872 19.7-19.701v-33.449c0-10.828-8.872-19.672-19.7-19.672z" fill="#d5eaff"/><path d="m396.374 117.81h-4.593v33.988c0 7.994-6.549 14.57-14.543 14.57h-81.865v4.564c0 10.829 8.846 19.701 19.674 19.701h81.327c10.828 0 19.672-8.872 19.672-19.701v-33.449c0-10.829-8.844-19.673-19.672-19.673z" fill="#b8ddff"/><path d="m196.953 117.81h-4.592v33.988c0 7.994-6.548 14.57-14.542 14.57h-81.865v4.564c0 10.829 8.844 19.701 19.672 19.701h81.327c10.828 0 19.702-8.872 19.702-19.701v-33.449c0-10.829-8.874-19.673-19.702-19.673z" fill="#b8ddff"/><path d="m368.678 7.512h-65.281c-8.704 0-15.818 7.087-15.818 15.79v26.844c0 8.703 7.114 15.79 15.818 15.79h65.281c8.674 0 15.789-7.087 15.789-15.79v-26.845c0-8.702-7.115-15.789-15.789-15.789z" fill="#b8ddff"/><path d="m368.678 7.512h-8.475v19.617c0 7.994-6.549 14.541-14.57 14.541h-58.055v8.476c0 8.703 7.114 15.79 15.818 15.79h65.281c8.674 0 15.789-7.087 15.789-15.79v-26.845c.001-8.702-7.114-15.789-15.788-15.789z" fill="#91ccff"/><path d="m208.604 7.512h-8.447v19.617c0 7.994-6.576 14.541-14.57 14.541h-58.054v8.476c0 8.703 7.116 15.79 15.79 15.79h65.281c8.704 0 15.818-7.087 15.818-15.79v-26.845c0-8.702-7.114-15.789-15.818-15.789z" fill="#91ccff"/></g><path d="m248.488 68.316c0-6.634-2.693-12.643-7.059-17.009-2.664-2.636-5.896-4.677-9.524-5.868v4.706c0 6.406-2.607 12.246-6.831 16.47s-10.035 6.832-16.471 6.832h-65.281c-6.406 0-12.246-2.608-16.442-6.832-4.224-4.224-6.859-10.063-6.859-16.47v-4.705c-3.601 1.191-6.86 3.231-9.496 5.868-4.508 4.507-7.115 10.602-7.115 17.009v44.901c3.686-1.842 7.823-2.919 12.217-2.919h81.327c7.483 0 14.287 3.061 19.22 7.994 4.904 4.932 7.966 11.707 7.966 19.19v9.837c9.326 1.503 17.745 5.783 24.35 11.962v-90.966zm143.634 158.09c4.139 0 7.482 3.373 7.482 7.512s-3.344 7.512-7.482 7.512h-72.823c-4.139 0-7.483-3.373-7.483-7.512s3.345-7.512 7.483-7.512zm0 41.84c4.139 0 7.482 3.345 7.482 7.483 0 4.139-3.344 7.513-7.482 7.513h-72.823c-4.139 0-7.483-3.374-7.483-7.513 0-4.138 3.345-7.483 7.483-7.483zm0 41.811c4.139 0 7.482 3.345 7.482 7.512 0 4.139-3.344 7.484-7.482 7.484h-72.823c-4.139 0-7.483-3.345-7.483-7.484 0-4.167 3.345-7.512 7.483-7.512zm-272.244-68.627c-4.139 0-7.482-3.373-7.482-7.512s3.344-7.512 7.482-7.512h72.823c4.139 0 7.512 3.373 7.512 7.512s-3.373 7.512-7.512 7.512zm0 41.812c-4.139 0-7.482-3.374-7.482-7.513 0-4.138 3.344-7.483 7.482-7.483h72.823c4.139 0 7.512 3.345 7.512 7.483 0 4.139-3.373 7.513-7.512 7.513zm0 41.811c-4.139 0-7.482-3.345-7.482-7.484 0-4.167 3.344-7.512 7.482-7.512h72.823c4.139 0 7.512 3.345 7.512 7.512 0 4.139-3.373 7.484-7.512 7.484zm233.153-251.606c-4.167 0-7.512-3.373-7.512-7.512s3.345-7.484 7.512-7.484h15.646c2.268 0 4.338-.936 5.84-2.438 1.502-1.531 2.438-3.6 2.438-5.868v-26.844c0-2.268-.936-4.337-2.438-5.868-1.502-1.502-3.572-2.438-5.84-2.438h-65.281c-2.268 0-4.365.935-5.869 2.438-1.502 1.531-2.438 3.6-2.438 5.868v26.844c0 2.268.936 4.337 2.438 5.868 1.504 1.502 3.602 2.438 5.869 2.438h15.646c4.139 0 7.512 3.345 7.512 7.484s-3.373 7.512-7.512 7.512h-15.646c-6.436 0-12.247-2.608-16.471-6.832s-6.831-10.063-6.831-16.47v-4.705c-3.629 1.191-6.86 3.231-9.524 5.868-4.365 4.366-7.059 10.375-7.059 17.009v90.964c6.633-6.179 15.023-10.46 24.35-11.962v-9.837c0-7.483 3.062-14.258 7.966-19.19 4.933-4.933 11.736-7.994 19.22-7.994h81.327c4.394 0 8.531 1.077 12.217 2.919v-44.901c0-6.634-2.75-12.643-7.115-17.009-2.636-2.636-5.895-4.677-9.496-5.868v4.706c0 6.406-2.636 12.246-6.86 16.47-4.195 4.224-10.035 6.832-16.441 6.832zm-72.936-43.484v-6.662c0-6.407 2.607-12.246 6.831-16.47 4.223-4.223 10.035-6.831 16.471-6.831h65.281c6.406 0 12.246 2.608 16.441 6.832 4.225 4.224 6.86 10.063 6.86 16.47v6.662c7.768 1.502 14.712 5.357 20.098 10.743 7.342 7.342 11.452 17.207 11.452 27.61 0 26.334.028 52.668.028 79.002 9.893 1.616 18.794 6.35 25.598 13.153 8.504 8.504 13.775 20.211 13.775 33.109v142.045h5.811c6.066 0 11.595 2.495 15.592 6.491 3.996 3.997 6.463 9.496 6.463 15.591v16.782c0 6.094-2.467 11.594-6.463 15.59-3.997 3.997-9.525 6.463-15.592 6.463h-5.811v5.641c0 12.898-5.271 24.605-13.775 33.08-2.354 2.353-4.933 4.451-7.739 6.265 2.807 1.815 5.386 3.912 7.739 6.265 8.504 8.476 13.775 20.211 13.775 33.109v23.613c0 4.138-3.373 7.483-7.512 7.483h-82.716c-4.139 0-7.512-3.345-7.512-7.483 0-4.139 3.373-7.512 7.512-7.512h75.204v-16.101c0-8.759-3.571-16.725-9.353-22.507-5.783-5.783-13.748-9.355-22.48-9.355h-152.561v47.963h75.204c4.139 0 7.512 3.374 7.512 7.512s-3.373 7.483-7.512 7.483h-282.135c-4.139 0-7.484-3.345-7.484-7.483v-23.613c0-12.898 5.244-24.633 13.748-33.109 2.353-2.353 4.933-4.45 7.739-6.265-2.807-1.814-5.386-3.912-7.739-6.265-8.504-8.475-13.748-20.183-13.748-33.08v-5.641h-5.839c-6.067 0-11.595-2.466-15.592-6.463-3.969-3.997-6.463-9.496-6.463-15.59v-16.782c0-6.095 2.494-11.594 6.463-15.591 3.997-3.997 9.524-6.491 15.592-6.491h5.839v-142.045c0-12.898 5.244-24.605 13.748-33.109 6.804-6.804 15.705-11.537 25.598-13.153 0-26.334.028-52.669.028-79.002 0-10.772 4.365-20.523 11.452-27.61 5.386-5.386 12.358-9.241 20.098-10.743v-6.662c0-6.407 2.636-12.246 6.859-16.47 4.196-4.224 10.036-6.832 16.442-6.832h65.281c6.436 0 12.247 2.608 16.471 6.832s6.831 10.063 6.831 16.47v6.662c7.768 1.502 14.74 5.357 20.126 10.743 1.446 1.446 2.778 2.976 3.969 4.649 1.219-1.672 2.522-3.203 3.969-4.649 5.414-5.387 12.358-9.242 20.126-10.744zm116.279 95.358h-81.327c-3.346 0-6.378 1.361-8.589 3.572-2.212 2.211-3.601 5.244-3.601 8.589v33.449c0 3.345 1.389 6.407 3.601 8.618 2.211 2.211 5.243 3.571 8.589 3.571h81.327c3.345 0 6.406-1.36 8.617-3.571 2.183-2.211 3.571-5.272 3.571-8.618v-33.449c0-3.345-1.389-6.378-3.571-8.589-2.211-2.211-5.272-3.572-8.617-3.572zm27.184 37.305v8.305c0 7.484-3.061 14.287-7.965 19.219-4.933 4.904-11.736 7.965-19.219 7.965h-81.327c-7.483 0-14.287-3.061-19.22-7.965-4.904-4.933-7.966-11.735-7.966-19.219v-8.305c-5.754 1.389-10.913 4.393-14.995 8.447-5.783 5.782-9.355 13.748-9.355 22.507v142.045h5.812c6.065 0 11.594 2.495 15.59 6.491 3.997 3.997 6.463 9.496 6.463 15.591v16.782c0 6.094-2.466 11.594-6.463 15.59-3.996 3.997-9.524 6.463-15.59 6.463h-5.812v37.502h152.562c8.732 0 16.696-3.6 22.48-9.383 5.782-5.782 9.353-13.72 9.353-22.479v-5.641h-5.81c-6.066 0-11.594-2.466-15.591-6.463s-6.463-9.496-6.463-15.59v-16.782c0-6.095 2.466-11.594 6.463-15.591s9.524-6.491 15.591-6.491h5.81v-142.043c0-8.759-3.571-16.725-9.353-22.507-4.081-4.054-9.241-7.059-14.995-8.448zm-206.648-139.325c0-2.268-.936-4.337-2.438-5.868-1.504-1.502-3.572-2.438-5.869-2.438h-65.281c-2.268 0-4.338.935-5.84 2.438-1.502 1.531-2.438 3.6-2.438 5.868v26.844c0 2.268.936 4.337 2.438 5.868 1.502 1.502 3.572 2.438 5.84 2.438h65.281c2.297 0 4.365-.936 5.869-2.438 1.502-1.531 2.438-3.6 2.438-5.868 0-8.957 0-17.886 0-26.844zm-128.468 139.325c-5.755 1.389-10.914 4.393-14.996 8.447-5.782 5.782-9.354 13.748-9.354 22.507v142.045h5.811c6.066 0 11.594 2.495 15.591 6.491 3.997 3.997 6.463 9.496 6.463 15.591v16.782c0 6.094-2.466 11.594-6.463 15.59-3.997 3.997-9.524 6.463-15.591 6.463h-5.811v5.641c0 8.759 3.571 16.697 9.354 22.479 5.783 5.783 13.748 9.383 22.508 9.383h152.534v-37.502h-5.811c-6.066 0-11.594-2.466-15.59-6.463-3.969-3.997-6.463-9.496-6.463-15.59v-16.782c0-6.095 2.494-11.594 6.463-15.591 3.996-3.997 9.524-6.491 15.59-6.491h5.811v-142.045c0-8.759-3.571-16.725-9.354-22.507-4.082-4.054-9.241-7.059-14.995-8.447v8.305c0 7.484-3.062 14.287-7.966 19.219-4.933 4.904-11.736 7.965-19.22 7.965h-23.669c-4.139 0-7.512-3.345-7.512-7.484s3.373-7.512 7.512-7.512h23.669c3.346 0 6.406-1.36 8.617-3.571s3.572-5.272 3.572-8.618c0-11.14 0-22.281 0-33.449 0-3.345-1.361-6.378-3.572-8.589s-5.271-3.572-8.617-3.572h-81.327c-3.345 0-6.377 1.361-8.589 3.572-2.211 2.211-3.6 5.244-3.6 8.589v33.449c0 3.345 1.389 6.407 3.6 8.618 2.212 2.211 5.244 3.571 8.589 3.571h23.671c4.139 0 7.512 3.373 7.512 7.512s-3.373 7.484-7.512 7.484h-23.671c-7.483 0-14.286-3.061-19.219-7.965-4.903-4.933-7.965-11.735-7.965-19.219zm180.881 188.024h-26.646c-1.928 0-3.685.793-4.96 2.069-1.304 1.276-2.098 3.033-2.098 4.989v16.782c0 1.928.794 3.713 2.098 4.989 1.275 1.276 3.032 2.069 4.96 2.069h26.646c1.928 0 3.685-.794 4.988-2.069 1.275-1.275 2.069-3.061 2.069-4.989v-16.782c0-1.956-.794-3.713-2.069-4.989-1.303-1.276-3.06-2.069-4.988-2.069zm199.419 0h-26.645c-1.928 0-3.686.793-4.989 2.069-1.275 1.276-2.069 3.033-2.069 4.989v16.782c0 1.928.794 3.713 2.069 4.989 1.304 1.276 3.062 2.069 4.989 2.069h26.645c1.929 0 3.686-.794 4.961-2.069 1.305-1.275 2.098-3.061 2.098-4.989v-16.782c0-1.956-.793-3.713-2.098-4.989-1.275-1.276-3.032-2.069-4.961-2.069zm-398.839 0h-26.645c-1.929 0-3.686.793-4.961 2.069-1.305 1.276-2.098 3.033-2.098 4.989v16.782c0 1.928.793 3.713 2.098 4.989 1.275 1.276 3.032 2.069 4.961 2.069h26.645c1.928 0 3.686-.794 4.989-2.069 1.275-1.275 2.069-3.061 2.069-4.989v-16.782c0-1.956-.794-3.713-2.069-4.989-1.303-1.276-3.061-2.069-4.989-2.069zm26.051 98.391c-8.76 0-16.725 3.572-22.508 9.355-5.782 5.783-9.354 13.748-9.354 22.507v16.101h184.396v-47.963z"/></g></svg>