<svg width="24" height="24" viewBox="0 0 24 24" fill="none" xmlns="http://www.w3.org/2000/svg">
<rect width="24" height="24" fill="white"/>
<path d="M12.5295 23H11.1976C9.55445 22.9981 7.97916 22.3446 6.81729 21.1827C5.65543 20.0208 5.00187 18.4456 5 16.8024V7.19757C5.00187 5.55444 5.65543 3.97916 6.81729 2.81729C7.97916 1.65543 9.55445 1.00187 11.1976 1H12.5295C14.1726 1.00187 15.7479 1.65543 16.9098 2.81729C18.0716 3.97916 18.7252 5.55444 18.7271 7.19757V10.1139C18.7301 10.1168 18.7249 16.7988 18.7271 16.8024C18.7252 18.4456 18.0716 20.0208 16.9098 21.1827C15.7479 22.3446 14.1726 22.9981 12.5295 23ZM9.70104 22.0605C10.6295 22.2621 11.5816 22.3322 12.5295 22.2687C13.9788 22.2671 15.3682 21.6906 16.3929 20.6659C17.4177 19.6411 17.9941 18.2517 17.9958 16.8024V11.0998C17.8061 11.3131 16.7262 12.59 16.5471 12.7609C15.8235 13.491 14.9023 13.9937 13.8968 14.2071C13.0065 14.398 12.1942 14.8524 11.5657 15.5112C10.9372 16.1701 10.5215 17.0028 10.3727 17.9012L9.70104 22.0605ZM5.73131 11.0973V16.8024C5.73236 17.8639 6.04197 18.9021 6.62245 19.7908C7.20293 20.6794 8.02923 21.3802 9.00078 21.8077L9.65067 17.7848C9.84022 16.6298 10.4103 15.5712 11.2704 14.7774C10.8297 14.5034 10.3438 14.3098 9.83531 14.2057C8.71033 13.9712 7.69358 13.3735 6.94152 12.5046L5.73131 11.0973ZM7.99022 12.5178C9.0715 13.5448 10.6961 13.4094 11.871 14.2968C13.0181 13.4269 14.6646 13.5373 15.7358 12.5163C15.3687 12.1178 14.9416 11.7791 14.4699 11.5126C13.7139 12.067 12.8009 12.3658 11.8634 12.3658C10.926 12.3657 10.013 12.0667 9.25714 11.5122C8.78504 11.7794 8.35758 12.1186 7.99022 12.5178ZM5.73131 9.97568L7.47246 12.0004C7.82972 11.6166 8.23603 11.2816 8.68087 11.0041C8.2837 10.591 7.97378 10.1022 7.76959 9.56682C7.36601 9.54382 6.98648 9.3675 6.70861 9.07391C6.43074 8.78033 6.27555 8.39167 6.27477 7.98744C6.274 7.58321 6.4277 7.19396 6.70443 6.89931C6.98117 6.60466 7.36003 6.42688 7.76351 6.40233C9.12089 2.69935 14.607 2.70071 15.9636 6.40233C16.3671 6.42688 16.746 6.60466 17.0227 6.89931C17.2994 7.19396 17.4531 7.58321 17.4524 7.98744C17.4516 8.39167 17.2964 8.78033 17.0185 9.07391C16.7407 9.3675 16.3611 9.54382 15.9575 9.56682C15.7531 10.1022 15.4431 10.591 15.0459 11.0041C15.4906 11.2814 15.8968 11.6161 16.2539 11.9996L17.9958 9.97997V7.19757C17.9942 5.74832 17.4177 4.35889 16.3929 3.33412C15.3682 2.30935 13.9787 1.73292 12.5295 1.73131H11.1976C9.74832 1.73293 8.3589 2.30936 7.33413 3.33413C6.30936 4.3589 5.73293 5.74832 5.73131 7.19757V9.97568ZM9.55212 10.8134C10.0183 11.1809 10.566 11.4308 11.149 11.5421C11.7321 11.6533 12.3333 11.6226 12.9021 11.4526C13.4708 11.2826 13.9902 10.9782 14.4165 10.5652C14.8428 10.1522 15.1635 9.6427 15.3515 9.07968C15.421 8.83389 15.6683 8.79403 15.889 8.83697C16.0059 8.83665 16.1215 8.81223 16.2285 8.76525C16.3356 8.71826 16.4318 8.64972 16.5112 8.56389C16.5906 8.47807 16.6514 8.3768 16.6899 8.26641C16.7284 8.15602 16.7437 8.03888 16.735 7.9223C16.7262 7.80572 16.6935 7.6922 16.6389 7.58883C16.5842 7.48546 16.5089 7.39445 16.4176 7.32148C16.3262 7.24852 16.2208 7.19517 16.1079 7.16475C15.995 7.13434 15.8771 7.12752 15.7615 7.14472C15.6755 7.15664 15.5882 7.13781 15.5148 7.09155C15.4414 7.04528 15.3867 6.97457 15.3605 6.8919C15.1398 6.182 14.7073 5.55657 14.1209 5.09951C13.5346 4.64245 12.8226 4.37562 12.0803 4.33481C11.9287 4.56135 11.8579 4.83231 11.879 5.10404C11.9002 5.37577 12.0122 5.63247 12.1971 5.83279C12.2635 5.90335 12.2993 5.99742 12.2964 6.09432C12.2935 6.19122 12.2523 6.28301 12.1817 6.34949C12.1111 6.41597 12.0171 6.45171 11.9202 6.44883C11.8233 6.44594 11.7315 6.40469 11.665 6.33413C11.4232 6.07759 11.2567 5.75936 11.184 5.41439C11.1112 5.06943 11.1349 4.71109 11.2525 4.37873C10.5857 4.48862 9.96255 4.78189 9.45287 5.22573C8.94319 5.66957 8.56706 6.24648 8.36657 6.8919C8.34065 6.9748 8.28606 7.04577 8.21259 7.09209C8.13911 7.13842 8.05154 7.15707 7.96557 7.14472C7.84434 7.12653 7.72061 7.13478 7.60288 7.16891C7.48514 7.20303 7.37618 7.26223 7.28347 7.34243C7.19076 7.42262 7.1165 7.52193 7.06578 7.63353C7.01506 7.74512 6.98909 7.86637 6.98963 7.98895C6.99018 8.11153 7.01724 8.23255 7.06896 8.34369C7.12067 8.45483 7.19582 8.55346 7.28924 8.63283C7.38266 8.7122 7.49214 8.77041 7.61018 8.80349C7.72821 8.83656 7.85201 8.84371 7.97307 8.82444C8.05971 8.81091 8.14831 8.82935 8.22236 8.87633C8.2964 8.9233 8.35084 8.99561 8.3755 9.07976C8.58502 9.76254 8.99497 10.3666 9.55212 10.8134ZM13.7314 8.34845C13.6834 8.34848 13.6359 8.33904 13.5915 8.32067C13.5471 8.30231 13.5068 8.27537 13.4728 8.24141C13.4389 8.20745 13.4119 8.16713 13.3936 8.12276C13.3752 8.07838 13.3658 8.03082 13.3658 7.9828C13.3658 7.89995 13.1637 7.89995 13.1637 7.9828C13.1637 8.07977 13.1251 8.17278 13.0566 8.24135C12.988 8.30993 12.895 8.34845 12.798 8.34845C12.701 8.34845 12.608 8.30993 12.5395 8.24135C12.4709 8.17278 12.4324 8.07977 12.4324 7.9828C12.4455 7.77099 12.539 7.57217 12.6936 7.42684C12.8483 7.28152 13.0525 7.20062 13.2647 7.20062C13.477 7.20063 13.6812 7.28154 13.8358 7.42687C13.9905 7.57221 14.0839 7.77103 14.0971 7.98284C14.0971 8.03086 14.0877 8.07842 14.0693 8.12279C14.0509 8.16716 14.024 8.20748 13.99 8.24143C13.9561 8.27539 13.9158 8.30232 13.8714 8.32068C13.827 8.33904 13.7795 8.34848 13.7314 8.34845ZM10.9291 8.34845C10.881 8.34848 10.8335 8.33904 10.7891 8.32067C10.7447 8.30231 10.7044 8.27537 10.6704 8.24141C10.6365 8.20745 10.6096 8.16713 10.5912 8.12276C10.5728 8.07838 10.5634 8.03082 10.5634 7.9828C10.5634 7.94316 10.502 7.92031 10.4623 7.92031C10.3952 7.92031 10.3613 7.94138 10.3613 7.9828C10.3613 8.03082 10.3519 8.07838 10.3335 8.12276C10.3151 8.16713 10.2882 8.20745 10.2543 8.24141C10.2203 8.27537 10.18 8.30231 10.1356 8.32067C10.0912 8.33904 10.0437 8.34848 9.99564 8.34845C9.2124 8.21894 9.80212 7.10815 10.4624 7.18904C11.1226 7.10827 11.7123 8.21891 10.9291 8.34845Z" fill="black"/>
</svg>
