<?xml version="1.0" encoding="UTF-8" standalone="no"?>
<!-- Created with Inkscape (http://www.inkscape.org/) -->

<svg
   version="1.1"
   id="svg3417"
   xml:space="preserve"
   width="682.66669"
   height="682.66669"
   viewBox="0 0 682.66669 682.66669"
   xmlns="http://www.w3.org/2000/svg"
   xmlns:svg="http://www.w3.org/2000/svg"><defs
     id="defs3421"><clipPath
       clipPathUnits="userSpaceOnUse"
       id="clipPath3431"><path
         d="M 0,512 H 512 V 0 H 0 Z"
         id="path3429" /></clipPath></defs><g
     id="g3423"
     transform="matrix(1.3333333,0,0,-1.3333333,0,682.66667)"><g
       id="g3425"><g
         id="g3427"
         clip-path="url(#clipPath3431)"><g
           id="g3433"
           transform="translate(145.4741,425.5439)"><path
             d="m 0,0 c -20.029,-23.482 -32.04,-53.469 -32.04,-86.138 0,-75.309 63.829,-125.899 142.566,-125.899 78.737,0 142.565,50.59 142.565,125.899 0,75.311 -63.828,136.362 -142.565,136.362 -31.338,0 -60.315,-9.671 -83.845,-26.064"
             style="fill:none;stroke:#000000;stroke-width:15;stroke-linecap:round;stroke-linejoin:round;stroke-miterlimit:10;stroke-dasharray:none;stroke-opacity:1"
             id="path3435" /></g><g
           id="g3437"
           transform="translate(119.438,378.6514)"><path
             d="m 0,0 c -2.452,0.425 -4.968,0.659 -7.542,0.659 -24.218,0 -43.851,-19.633 -43.851,-43.851 0,-24.219 19.633,-43.852 43.851,-43.852 3.646,0 7.184,0.453 10.57,1.291"
             style="fill:none;stroke:#000000;stroke-width:15;stroke-linecap:round;stroke-linejoin:round;stroke-miterlimit:10;stroke-dasharray:none;stroke-opacity:1"
             id="path3439" /></g><g
           id="g3441"
           transform="translate(392.562,378.6514)"><path
             d="m 0,0 c 2.452,0.425 4.968,0.659 7.542,0.659 24.218,0 43.851,-19.633 43.851,-43.851 0,-24.219 -19.633,-43.852 -43.851,-43.852 -3.646,0 -7.184,0.453 -10.57,1.291"
             style="fill:none;stroke:#000000;stroke-width:15;stroke-linecap:round;stroke-linejoin:round;stroke-miterlimit:10;stroke-dasharray:none;stroke-opacity:1"
             id="path3443" /></g><g
           id="g3445"
           transform="translate(322.3789,32.8125)"><path
             d="m 0,0 c -17.498,-16.623 -40.135,-25.312 -66.379,-25.312 -32.531,0 -59.52,13.352 -78.048,38.614 -6.182,8.427 -11.454,18.178 -15.825,29.202 35.304,29.482 102.636,73.622 188.849,93.728 7.456,1.74 14.503,-4.138 14.18,-11.788 C 41.119,85.138 33.926,53.129 21.306,28.886"
             style="fill:none;stroke:#000000;stroke-width:15;stroke-linecap:round;stroke-linejoin:round;stroke-miterlimit:10;stroke-dasharray:none;stroke-opacity:1"
             id="path3447" /></g><g
           id="g3449"
           transform="translate(286.4199,148.6045)"><path
             d="m 0,0 c -43.896,25.653 -92.498,42.235 -124.195,51.035 -6.899,1.915 -13.871,-2.716 -14.811,-9.812 -0.627,-4.729 -0.95,-9.55 -0.95,-14.447 0,-40.343 5.257,-73.839 15.663,-100.075"
             style="fill:none;stroke:#000000;stroke-width:15;stroke-linecap:round;stroke-linejoin:round;stroke-miterlimit:10;stroke-dasharray:none;stroke-opacity:1"
             id="path3451" /></g><g
           id="g3453"
           transform="translate(172.0527,235.9922)"><path
             d="M 0,0 C -7.818,-10.809 -13.599,-23.186 -16.782,-36.57"
             style="fill:none;stroke:#000000;stroke-width:15;stroke-linecap:round;stroke-linejoin:round;stroke-miterlimit:10;stroke-dasharray:none;stroke-opacity:1"
             id="path3455" /></g><g
           id="g3457"
           transform="translate(359.4678,167.7207)"><path
             d="m 0,0 c 0.043,2.521 0.073,5.066 0.073,7.66 0,22.637 -7.269,43.572 -19.593,60.611"
             style="fill:none;stroke:#000000;stroke-width:15;stroke-linecap:round;stroke-linejoin:round;stroke-miterlimit:10;stroke-dasharray:none;stroke-opacity:1"
             id="path3459" /></g><g
           id="g3461"
           transform="translate(182.2314,340.5029)"><path
             d="m 0,0 c 3.501,-4.017 8.652,-6.56 14.399,-6.56 5.747,0 10.898,2.543 14.399,6.56"
             style="fill:none;stroke:#000000;stroke-width:15;stroke-linecap:round;stroke-linejoin:round;stroke-miterlimit:10;stroke-dasharray:none;stroke-opacity:1"
             id="path3463" /></g><g
           id="g3465"
           transform="translate(329.7686,340.5029)"><path
             d="m 0,0 c -3.501,-4.017 -8.652,-6.56 -14.399,-6.56 -5.747,0 -10.898,2.543 -14.399,6.56"
             style="fill:none;stroke:#000000;stroke-width:15;stroke-linecap:round;stroke-linejoin:round;stroke-miterlimit:10;stroke-dasharray:none;stroke-opacity:1"
             id="path3467" /></g><g
           id="g3469"
           transform="translate(271.96,447.0352)"><path
             d="m 0,0 c -17.632,0 -31.925,14.293 -31.925,31.925 0,14.105 11.435,25.54 25.54,25.54"
             style="fill:none;stroke:#000000;stroke-width:15;stroke-linecap:round;stroke-linejoin:round;stroke-miterlimit:10;stroke-dasharray:none;stroke-opacity:1"
             id="path3471" /></g><g
           id="g3473"
           transform="translate(267.1333,320.8486)"><path
             d="m 0,0 c 0,6.558 -4.984,11.873 -11.133,11.873 -6.149,0 -11.134,-5.315 -11.134,-11.873 0,-6.558 4.985,-11.874 11.134,-11.874 C -4.984,-11.874 0,-6.558 0,0"
             style="fill:#000000;fill-opacity:1;fill-rule:nonzero;stroke:none"
             id="path3475" /></g><g
           id="g3477"
           transform="translate(187.2549,152.1738)"><path
             d="M 0,0 5.228,-5.228"
             style="fill:none;stroke:#000000;stroke-width:15;stroke-linecap:round;stroke-linejoin:round;stroke-miterlimit:10;stroke-dasharray:none;stroke-opacity:1"
             id="path3479" /></g><g
           id="g3481"
           transform="translate(226.6147,68.0391)"><path
             d="M 0,0 6.123,6.122"
             style="fill:none;stroke:#000000;stroke-width:15;stroke-linecap:round;stroke-linejoin:round;stroke-miterlimit:10;stroke-dasharray:none;stroke-opacity:1"
             id="path3483" /></g><g
           id="g3485"
           transform="translate(292.1968,74.1025)"><path
             d="M 0,0 6.005,-6.005"
             style="fill:none;stroke:#000000;stroke-width:15;stroke-linecap:round;stroke-linejoin:round;stroke-miterlimit:10;stroke-dasharray:none;stroke-opacity:1"
             id="path3487" /></g><g
           id="g3489"
           transform="translate(311.3887,116.0771)"><path
             d="M 0,0 5.052,5.052"
             style="fill:none;stroke:#000000;stroke-width:15;stroke-linecap:round;stroke-linejoin:round;stroke-miterlimit:10;stroke-dasharray:none;stroke-opacity:1"
             id="path3491" /></g><g
           id="g3493"
           transform="translate(301.9629,186.7012)"><path
             d="M 0,0 1.852,1.853"
             style="fill:none;stroke:#000000;stroke-width:15;stroke-linecap:round;stroke-linejoin:round;stroke-miterlimit:10;stroke-dasharray:none;stroke-opacity:1"
             id="path3495" /></g></g></g></g></svg>
