<svg width="24" height="24" viewBox="0 0 24 24" fill="none" xmlns="http://www.w3.org/2000/svg">
<rect width="24" height="24" fill="white"/>
<path d="M12.0002 8.33333C13.4705 8.33333 14.6668 7.1371 14.6668 5.66667C14.6668 4.19623 13.4705 3 12.0002 3C10.5298 3 9.3335 4.19623 9.3335 5.66667C9.3335 7.1371 10.5297 8.33333 12.0002 8.33333ZM12.0002 3.98675C12.9135 3.98675 13.6564 4.74035 13.6564 5.66672C13.6564 6.59308 12.9135 7.34668 12.0002 7.34668C11.0869 7.34668 10.3439 6.59308 10.3439 5.66672C10.3439 4.74035 11.0869 3.98675 12.0002 3.98675Z" fill="black"/>
<path d="M13.4041 9.11157H10.5958C9.16446 9.11157 8 10.303 8 11.7675V15.1706C8 15.4821 8.2526 15.7347 8.5641 15.7347H9.13626L9.98026 21.1208C10.0233 21.3953 10.2598 21.5976 10.5376 21.5976H13.4625C13.7403 21.5976 13.9768 21.3953 14.0198 21.1208L14.8637 15.7347H15.4359C15.7474 15.7347 16 15.4821 16 15.1706V11.7675C15.9999 10.303 14.8355 9.11157 13.4041 9.11157ZM9.12825 11.7675C9.12825 10.9251 9.7866 10.2398 10.5959 10.2398H13.4042C14.2135 10.2398 14.8718 10.9251 14.8718 11.7675V14.6065H9.12825V11.7675ZM12.9799 20.4695H11.0202L10.2783 15.7347H13.7218L12.9799 20.4695Z" fill="black"/>
</svg>
