<svg id="Layer_1" enable-background="new 0 0 2000 2000" height="512" viewBox="0 0 2000 2000" width="512" xmlns="http://www.w3.org/2000/svg"><g><path d="m1395.55 674.98c117.48 0 213.06-95.58 213.06-213.06s-95.58-213.06-213.06-213.06-213.06 95.58-213.06 213.06 95.58 213.06 213.06 213.06zm0-387.1c95.97 0 174.05 78.08 174.05 174.05s-78.08 174.05-174.05 174.05-174.05-78.08-174.05-174.05 78.08-174.05 174.05-174.05z"/><path d="m1799.54 1168.53c-.04-.29-.09-.57-.14-.85-.02-.13-.06-.26-.09-.39l-71.78-364.05c-27.2-137.95-119.29-136.28-153.95-135.65-.03 0-.05.01-.08.01-1.12 0-2.22.03-3.31.07-.5-.04-1.01-.08-1.53-.08-24.88 0-42.68 8.21-61.52 16.9-25.39 11.71-54.17 24.98-114.4 24.98s-89-13.27-114.39-24.98c-18.73-8.64-36.43-16.79-61.08-16.89-.03 0-.06-.01-.08-.01-34.66-.63-126.7-2.3-153.93 135.54-.01.04-.02.08-.03.11l-71.88 364.56v.03c-.01.07-.03.14-.05.22-.02.14-.05.29-.07.44-8.28 50.41 25.96 98.18 76.38 106.52 5.11.85 10.22 1.26 15.3 1.26 13.26 0 26.28-2.86 38.32-8.37l-16.34 83.42c-.25.69-.47 1.39-.64 2.12-.93 3.92-1.4 7.96-1.4 11.99 0 28.61 23.27 51.88 51.88 51.88.05 0 .1-.01.15-.01s.1.01.15.01h34.61v221.4.1.71c0 62.1 50.52 112.63 112.63 112.63 29.84 0 57.96-11.55 79.18-32.53 5.22-5.16 9.88-10.76 13.94-16.69 4.06 5.94 8.71 11.53 13.94 16.69 21.22 20.98 49.34 32.53 79.18 32.53 62.1 0 112.63-50.52 112.63-112.63v-.64c0-.03 0-.06 0-.08 0-.03 0-.06 0-.08v-221.4h34.61c28.61 0 51.88-23.27 51.88-51.88 0-.68-.03-1.35-.06-2.03.1-1.64.03-3.31-.3-5l-17.73-90.51c12.03 5.52 25.05 8.37 38.32 8.37 5.08 0 10.2-.42 15.3-1.26 50.4-8.33 84.65-56.08 76.38-106.48zm-497.27 544.61c-40.59 0-73.62-33.02-73.62-73.62v-.29c0-.11-.01-.21-.01-.32 0-.06.01-.13.01-.19v-221.4h147.23v221.97c0 .2.02.4.03.61-.01.16-.03.32-.03.48-.46 40.12-33.48 72.76-73.61 72.76zm259.86-74.34v.08.64c0 40.59-33.03 73.62-73.62 73.62-40.13 0-73.15-32.64-73.61-72.77 0-.16-.02-.32-.03-.48.01-.2.03-.4.03-.61v-221.97h147.23v221.4c-.01.04 0 .07 0 .09zm154.67-402.27c-28.9 4.78-56.55-14.79-61.66-43.63-.22-1.23-.56-2.41-.99-3.54l-59.93-306.01c-2.07-10.57-12.32-17.46-22.89-15.39s-17.46 12.32-15.39 22.89l91.96 469.52c.09.69.21 1.39.37 2.09.23.98.35 1.98.35 2.98 0 7.1-5.77 12.87-12.87 12.87h-480.72c-.05 0-.1.01-.15.01s-.1-.01-.15-.01c-7.1 0-12.87-5.77-12.87-12.87 0-.41.03-.82.07-1.24.27-.81.51-1.64.68-2.5l92.22-470.85c2.07-10.57-4.82-20.82-15.39-22.89s-20.82 4.82-22.89 15.39l-59.93 306c-.43 1.13-.77 2.31-.99 3.55-5.11 28.83-32.76 48.4-61.65 43.63-29.17-4.82-48.99-32.43-44.26-61.6l71.78-364.03c.01-.03.02-.07.02-.1 20.88-105.9 82.08-104.79 114.97-104.19h.35c16.32 0 28.42 5.58 45.18 13.31 27.6 12.73 61.94 28.57 130.73 28.57 1.56 0 3.09-.02 4.62-.03.22.01.44.03.66.03 68.79 0 103.13-15.84 130.73-28.57 16.76-7.73 28.86-13.31 45.18-13.31.06 0 .11-.01.17-.01s.12.01.18.01c32.88-.6 94.08-1.71 114.97 104.19l71.79 364.13c4.74 29.16-15.08 56.78-44.25 61.6z"/><path d="m848.67 714.03c-29.91-30.61-70.85-47.03-118.41-47.47-.06 0-.12 0-.19 0-.93 0-1.83.09-2.73.21-.89-.13-1.8-.21-2.73-.21-24.88 0-42.68 8.21-61.52 16.9-25.39 11.71-54.16 24.98-114.39 24.98s-89-13.27-114.39-24.98c-18.84-8.69-36.64-16.9-61.51-16.9-.03 0-.06 0-.09 0s-.06 0-.09 0c-47.56.44-88.5 16.86-118.41 47.47-37.54 38.43-56.03 97.38-54.94 175.22.1 6.83.07 46.34.04 92.09-.06 84.06-.12 186.72.35 217.27-.18 1.01-.3 2.03-.31 3.08v.78c0 51.13 41.6 92.73 92.73 92.73 19.44 0 37.99-5.96 53.54-17v359.6.04.59c0 62.1 50.52 112.62 112.62 112.62 29.84 0 57.96-11.55 79.18-32.53 5.41-5.34 10.2-11.15 14.36-17.32 20.16 30.04 54.43 49.84 93.25 49.84 29.73 0 57.75-11.51 78.9-32.41s32.98-48.79 33.32-78.52c0-.04 0-.07 0-.11s.01-.08.01-.11v-361.72c15.56 11.06 34.12 17.02 53.57 17.02 51.13 0 92.73-41.6 92.73-92.73v-.5c0-1.16-.12-2.29-.31-3.4.47-30.6.4-133.26.35-217.33-.03-45.7-.06-85.16.04-91.99 1.06-77.83-17.43-136.78-54.97-175.21zm-37.86 542.16c-28.2 0-51.58-22.1-53.57-49.89v-289.2c0-10.77-8.73-19.5-19.5-19.5s-19.5 8.73-19.5 19.5v284.01c-.09.8-.15 1.61-.14 2.44.02 1.37.07 2.73.14 4.09v432.08c-.48 39.89-33.32 72.33-73.22 72.33-40.37 0-73.22-32.84-73.22-73.22v-.28c.04-2.21-.31-4.33-.95-6.32v-392.14c0-10.77-8.73-19.5-19.5-19.5s-19.5 8.73-19.5 19.5v398.11c0 .21.02.41.03.61-.01.16-.03.32-.03.48-.46 40.12-33.48 72.76-73.61 72.76-40.59 0-73.61-33.02-73.61-73.61v-.46c0-.04 0-.07 0-.11 0-.02 0-.05 0-.07v-429.61c.09-1.54.15-3.09.17-4.65.01-.9-.06-1.77-.17-2.64v-281.4c0-10.77-8.73-19.5-19.5-19.5s-19.5 8.73-19.5 19.5v287.13c-2.14 27.64-25.45 49.57-53.54 49.57-27.85 0-50.82-21.31-53.46-48.49.16-1.16.24-2.34.19-3.55-.62-15.1-.54-140.08-.48-222.79.03-47.79.06-85.54-.04-92.66-.94-67.08 13.81-116.68 43.84-147.42 22.47-23 53.85-35.35 90.75-35.73 16.28.01 28.38 5.59 45.11 13.31 27.6 12.73 61.94 28.57 130.73 28.57s103.13-15.84 130.73-28.57c16.76-7.73 28.86-13.31 45.18-13.31.93 0 1.83-.09 2.72-.21.84.12 1.69.2 2.56.21 36.95.35 68.38 12.7 90.87 35.73 30.03 30.74 44.78 80.33 43.84 147.42-.1 7.11-.07 44.82-.04 92.56.05 82.74.14 207.78-.48 222.88-.05 1.21.03 2.39.19 3.55-2.67 27.18-25.64 48.49-53.49 48.49z"/><path d="m551.51 673.95c117.47 0 213.05-95.57 213.05-213.05 0-117.47-95.57-213.05-213.05-213.05s-213.05 95.57-213.05 213.05c0 117.47 95.58 213.05 213.05 213.05zm0-387.09c95.96 0 174.04 78.07 174.04 174.04s-78.07 174.04-174.04 174.04-174.04-78.07-174.04-174.04 78.08-174.04 174.04-174.04z"/></g></svg>