<svg id="color_line" height="512" viewBox="0 0 74 74" width="512" xmlns="http://www.w3.org/2000/svg" data-name="color line"><rect fill="#fcd462" height="43.795" rx="3.813" width="34.998" x="19.501" y="23.124"/><path d="m54.5 26.94v36.17a3.806 3.806 0 0 1 -3.59 3.8 2.961 2.961 0 0 0 .04-.52v-36.17a3.815 3.815 0 0 0 -3.81-3.81h-27.38a1.62 1.62 0 0 0 -.22.01 3.816 3.816 0 0 1 3.77-3.3h27.38a3.818 3.818 0 0 1 3.81 3.82z" fill="#f7be56"/><path d="m41.723 8.54h3.027v14.58h-3.027z" fill="#eeefee"/><path d="m44.75 23.62h-3.027a.5.5 0 0 1 -.5-.5v-14.58a.5.5 0 0 1 .5-.5h3.027a.5.5 0 0 1 .5.5v14.58a.5.5 0 0 1 -.5.5zm-2.527-1h2.027v-13.58h-2.027z" fill="#323c6b"/><path d="m29.25 8.54h3.027v14.58h-3.027z" fill="#eeefee"/><path d="m32.277 23.62h-3.027a.5.5 0 0 1 -.5-.5v-14.58a.5.5 0 0 1 .5-.5h3.027a.5.5 0 0 1 .5.5v14.58a.5.5 0 0 1 -.5.5zm-2.527-1h2.027v-13.58h-2.027z" fill="#323c6b"/><rect fill="#9297ab" height="5.543" rx=".986" width="19.371" x="27.315" y="3"/><path d="m45.7 9.043h-17.4a1.488 1.488 0 0 1 -1.486-1.486v-3.571a1.488 1.488 0 0 1 1.486-1.486h17.4a1.488 1.488 0 0 1 1.486 1.486v3.571a1.488 1.488 0 0 1 -1.486 1.486zm-17.4-5.543a.487.487 0 0 0 -.486.486v3.571a.487.487 0 0 0 .486.486h17.4a.487.487 0 0 0 .486-.486v-3.571a.487.487 0 0 0 -.486-.486z" fill="#323c6b"/><path d="m23.026 69.813a1.187 1.187 0 0 0 1.187 1.187h3.035a1.188 1.188 0 0 0 1.187-1.187v-2.894h-5.409z" fill="#9297ab"/><path d="m27.248 71.5h-3.035a1.689 1.689 0 0 1 -1.687-1.688v-2.893a.5.5 0 0 1 .5-.5h5.409a.5.5 0 0 1 .5.5v2.893a1.689 1.689 0 0 1 -1.687 1.688zm-3.722-4.081v2.393a.688.688 0 0 0 .687.688h3.035a.689.689 0 0 0 .687-.688v-2.393z" fill="#323c6b"/><path d="m45.565 66.919v2.894a1.188 1.188 0 0 0 1.187 1.187h3.035a1.187 1.187 0 0 0 1.187-1.187v-2.894z" fill="#9297ab"/><g fill="#323c6b"><path d="m49.787 71.5h-3.035a1.689 1.689 0 0 1 -1.687-1.688v-2.893a.5.5 0 0 1 .5-.5h5.409a.5.5 0 0 1 .5.5v2.893a1.689 1.689 0 0 1 -1.687 1.688zm-3.722-4.081v2.393a.689.689 0 0 0 .687.688h3.035a.688.688 0 0 0 .687-.688v-2.393z"/><path d="m27.467 59.515a.5.5 0 0 1 -.5-.5v-27.987a.5.5 0 0 1 1 0v27.987a.5.5 0 0 1 -.5.5z"/><path d="m37 59.515a.5.5 0 0 1 -.5-.5v-27.987a.5.5 0 1 1 1 0v27.987a.5.5 0 0 1 -.5.5z"/><path d="m46.533 59.515a.5.5 0 0 1 -.5-.5v-27.987a.5.5 0 0 1 1 0v27.987a.5.5 0 0 1 -.5.5z"/><path d="m57.5 56.479a.5.5 0 0 1 -.5-.5v-.708a.5.5 0 0 1 1 0v.708a.5.5 0 0 1 -.5.5z"/><path d="m16.5 31.528a.5.5 0 0 1 -.5-.5v-.562a.5.5 0 0 1 1 0v.562a.5.5 0 0 1 -.5.5z"/><path d="m16.5 28.594a.5.5 0 0 1 -.5-.5v-1.157a7.289 7.289 0 0 1 6.574-7.276.5.5 0 1 1 .1.995 6.292 6.292 0 0 0 -5.674 6.281v1.157a.5.5 0 0 1 -.5.5z"/><path d="m57.5 53.417a.5.5 0 0 1 -.5-.5v-8.25a.5.5 0 0 1 1 0v8.25a.5.5 0 0 1 -.5.5z"/><path d="m50.686 67.419h-27.372a4.317 4.317 0 0 1 -4.314-4.313v-36.169a4.318 4.318 0 0 1 4.313-4.313h27.373a4.318 4.318 0 0 1 4.314 4.313v36.169a4.317 4.317 0 0 1 -4.314 4.313zm-27.372-43.795a3.316 3.316 0 0 0 -3.314 3.313v36.169a3.316 3.316 0 0 0 3.313 3.313h27.373a3.316 3.316 0 0 0 3.314-3.313v-36.169a3.316 3.316 0 0 0 -3.313-3.313z"/></g><path d="m26.437 64.025a4.468 4.468 0 0 1 -4.462-4.463v-2.062a.65.65 0 0 1 1.3 0v2.062a3.166 3.166 0 0 0 3.162 3.163.65.65 0 1 1 0 1.3z" fill="#fff"/><path d="m22.625 55.525a.65.65 0 0 1 -.65-.65v-.833a.65.65 0 0 1 1.3 0v.833a.65.65 0 0 1 -.65.65z" fill="#fff"/></svg>